<svg width="176" height="173" viewBox="0 0 176 173" fill="none" xmlns="http://www.w3.org/2000/svg">
<g clip-path="url(#clip0_2417_575)">
<path fill-rule="evenodd" clip-rule="evenodd" d="M146.986 19.0436C146.986 17.2161 146.318 15.4516 145.108 14.0818C143.898 12.7119 142.23 11.8309 140.416 11.6043L50.4163 0.355486C49.3606 0.223577 48.289 0.31775 47.2725 0.631749C46.256 0.945748 45.318 1.47239 44.5207 2.1767C43.7234 2.88101 43.0851 3.74686 42.6481 4.71677C42.2112 5.68668 41.9856 6.73845 41.9863 7.80222V97.793C41.9856 98.8568 42.2112 99.9085 42.6481 100.878C43.0851 101.848 43.7234 102.714 44.5207 103.419C45.318 104.123 46.256 104.649 47.2725 104.963C48.289 105.277 49.3606 105.372 50.4163 105.24L140.416 93.9909C142.23 93.7643 143.898 92.8833 145.108 91.5134C146.318 90.1436 146.986 88.3792 146.986 86.5516V19.0586V19.0436ZM139.486 56.5397V86.5366L101.986 91.2237V56.5772H139.486V56.5397ZM101.986 49.0405H139.486V19.0436L101.986 14.3565V49.003V49.0405ZM94.4863 56.5397V92.1611L49.4863 97.7855V56.5397H94.4863ZM49.4863 49.0405H94.4863V13.4191L49.4863 7.79472V49.0405Z" fill="#2D2E2E"/>
<path d="M50.9834 96.3345V91.3101" stroke="#2D2E2E" stroke-width="0.625" stroke-linecap="round"/>
<path d="M92.9863 91.376V86.3516" stroke="#2D2E2E" stroke-width="0.625" stroke-linecap="round"/>
<path d="M69.1146 90.5425L67.838 90.6995L67.7807 90.2333C67.7778 90.2093 67.7773 90.1838 67.7792 90.1567C67.7817 90.1288 67.7871 90.101 67.7955 90.073C67.8038 90.0451 67.8156 90.0181 67.8307 89.9919C67.8465 89.9657 67.8662 89.942 67.8899 89.9207C67.9141 89.8987 67.9426 89.8801 67.9755 89.8649C68.0084 89.8497 68.0465 89.8395 68.0898 89.8341L68.6578 89.7643C68.692 89.7601 68.7162 89.7486 68.7303 89.7298C68.7449 89.7103 68.7502 89.6841 68.7462 89.6511L68.7325 89.5396C68.7283 89.5054 68.7167 89.4806 68.6977 89.4652C68.6788 89.4498 68.6532 89.4441 68.6209 89.4481L67.8115 89.5476L67.7805 89.2956L68.5899 89.1961C68.6325 89.1908 68.6716 89.1916 68.7072 89.1984C68.7428 89.2052 68.7747 89.2163 68.8029 89.2319C68.8316 89.2467 68.8568 89.2649 68.8785 89.2865C68.9001 89.3081 68.9184 89.3315 68.9333 89.3565C68.9488 89.3809 68.9607 89.4063 68.9693 89.4328C68.9783 89.4586 68.9843 89.4831 68.9872 89.5064L69.0011 89.6198C69.0091 89.685 69.004 89.7417 68.9856 89.7899C68.9678 89.8374 68.9429 89.8775 68.9109 89.9103C68.8788 89.9424 68.8428 89.9675 68.803 89.9855C68.7638 90.0028 68.7265 90.0136 68.6909 90.018L68.121 90.0881C68.1003 90.0906 68.0842 90.0956 68.0727 90.1029C68.0611 90.1102 68.0524 90.1192 68.0464 90.1297C68.0412 90.1402 68.0377 90.1518 68.0359 90.1645C68.0342 90.1772 68.0332 90.1897 68.0327 90.2023L68.0591 90.4165L69.0836 90.2905L69.1146 90.5425ZM70.8866 89.7343C70.8936 89.7911 70.8928 89.846 70.8842 89.8989C70.8762 89.951 70.8616 90.0004 70.8404 90.0469C70.8192 90.0935 70.7927 90.1361 70.7607 90.1748C70.7287 90.2135 70.6926 90.2478 70.6523 90.2777C70.6126 90.3068 70.5693 90.3308 70.5225 90.3497C70.4756 90.3686 70.4269 90.3811 70.3765 90.3873L69.922 90.4432C69.8709 90.4495 69.8204 90.4492 69.7703 90.4422C69.7203 90.4352 69.6721 90.4225 69.6259 90.4039C69.5802 90.3846 69.5372 90.36 69.4968 90.3302C69.4564 90.3004 69.4203 90.2655 69.3885 90.2255C69.3573 90.1853 69.3312 90.141 69.3101 90.0924C69.2896 90.0431 69.2759 89.99 69.2689 89.9332L69.241 89.7064C69.2305 89.6211 69.2367 89.5409 69.2597 89.466C69.2832 89.3909 69.3187 89.3246 69.366 89.2669C69.4133 89.2086 69.4701 89.161 69.5364 89.124C69.6032 89.0862 69.6748 89.0627 69.751 89.0533L70.2056 88.9974C70.256 88.9912 70.3063 88.9916 70.3563 88.9986C70.4064 89.0055 70.4542 89.0187 70.4999 89.038C70.5461 89.0566 70.5894 89.0807 70.6298 89.1105C70.6702 89.1403 70.7063 89.1753 70.7382 89.2153C70.77 89.2553 70.7961 89.3 70.8166 89.3493C70.8377 89.3979 70.8517 89.4506 70.8587 89.5075L70.8866 89.7343ZM70.6048 89.5387C70.5986 89.4889 70.584 89.4448 70.5609 89.4063C70.5378 89.3678 70.5093 89.3359 70.4754 89.3106C70.4421 89.2852 70.4047 89.2671 70.3634 89.2565C70.3221 89.2458 70.2798 89.2434 70.2366 89.2494L69.782 89.3053C69.74 89.3098 69.6998 89.3223 69.6617 89.3427C69.6241 89.3624 69.5916 89.3887 69.5641 89.4216C69.5373 89.4538 69.517 89.4917 69.5033 89.5354C69.4903 89.5783 69.4868 89.625 69.493 89.6754L69.5209 89.9022C69.5271 89.9526 69.5417 89.997 69.5648 90.0355C69.5879 90.074 69.6165 90.1059 69.6504 90.1313C69.6843 90.156 69.7219 90.1736 69.7632 90.1843C69.8052 90.1949 69.8478 90.1972 69.891 90.1912L70.3456 90.1353C70.3953 90.1292 70.4392 90.1156 70.4773 90.0945C70.5159 90.0727 70.5477 90.0455 70.5726 90.013C70.5974 89.9804 70.6151 89.9431 70.6257 89.9011C70.6362 89.8585 70.6385 89.8133 70.6326 89.7655L70.6048 89.5387ZM70.4726 89.368C70.484 89.381 70.4924 89.3957 70.4977 89.4121C70.5029 89.4279 70.5049 89.444 70.5036 89.4606C70.5023 89.4765 70.4977 89.4922 70.4897 89.5076C70.4824 89.5222 70.4718 89.5353 70.4582 89.5469L69.8336 90.0851C69.8237 90.0949 69.8131 90.1021 69.8019 90.1067C69.7906 90.1114 69.7789 90.1145 69.7666 90.116C69.7459 90.1185 69.7256 90.1161 69.7057 90.1087C69.6858 90.1013 69.6689 90.0893 69.655 90.0726C69.6436 90.0596 69.6352 90.0452 69.63 90.0295C69.6247 90.0131 69.6224 89.997 69.6231 89.9811C69.6243 89.9646 69.6286 89.949 69.636 89.9343C69.6433 89.9189 69.6538 89.9055 69.6675 89.894L70.2939 89.3555C70.307 89.3441 70.3214 89.3357 70.3371 89.3305C70.3535 89.3252 70.3697 89.3232 70.3856 89.3246C70.4021 89.3258 70.4177 89.3301 70.4324 89.3375C70.4478 89.3448 70.4611 89.355 70.4726 89.368ZM72.7667 90.0934L72.5147 90.1244L72.4293 89.4295C72.4252 89.3965 72.4134 89.3727 72.3939 89.358C72.3743 89.3427 72.3474 89.3372 72.3132 89.3414L71.9856 89.3817L72.0834 90.1774L71.8314 90.2084L71.7179 89.2857C71.7158 89.2683 71.717 89.2517 71.7217 89.236C71.7262 89.2197 71.7336 89.2054 71.7439 89.193C71.7541 89.1799 71.7666 89.1692 71.7813 89.1608C71.796 89.1525 71.8121 89.1472 71.8295 89.1451L72.2841 89.0892C72.319 89.0849 72.3573 89.0864 72.3988 89.0937C72.4404 89.1011 72.4809 89.1161 72.5205 89.1388L72.5109 89.0613L72.8521 89.0193C72.876 89.0164 72.9016 89.0162 72.9288 89.0187C72.9559 89.0207 72.9831 89.0258 73.0104 89.0343C73.0383 89.0427 73.0654 89.0547 73.0916 89.0705C73.1177 89.0857 73.1415 89.1054 73.1628 89.1297C73.1841 89.1533 73.2023 89.1816 73.2175 89.2145C73.2327 89.2474 73.243 89.2854 73.2483 89.3287L73.3338 90.0237L73.0818 90.0547L72.9963 89.3597C72.9922 89.3268 72.9808 89.3029 72.9619 89.2882C72.9436 89.2727 72.9173 89.2671 72.8831 89.2713L72.6563 89.2992C72.6685 89.3292 72.6768 89.3623 72.6813 89.3985L72.7667 90.0934ZM74.5017 89.8801L74.2497 89.9111L74.1643 89.2161C74.1602 89.1832 74.1484 89.1594 74.1289 89.1447C74.1093 89.1294 74.0824 89.1239 74.0482 89.1281L73.7205 89.1683L73.8184 89.9641L73.5664 89.9951L73.4529 89.0724C73.4508 89.0549 73.452 89.0384 73.4567 89.0227C73.4612 89.0064 73.4686 88.992 73.4789 88.9796C73.4891 88.9666 73.5016 88.9559 73.5163 88.9475C73.531 88.9391 73.5471 88.9339 73.5645 88.9317L74.0191 88.8758C74.054 88.8715 74.0922 88.8731 74.1338 88.8804C74.1754 88.8878 74.2159 88.9028 74.2554 88.9255L74.2459 88.8479L74.5871 88.806C74.611 88.803 74.6366 88.8028 74.6638 88.8054C74.6909 88.8073 74.7181 88.8125 74.7454 88.821C74.7733 88.8293 74.8004 88.8414 74.8266 88.8572C74.8527 88.8724 74.8765 88.8921 74.8978 88.9163C74.9191 88.94 74.9373 88.9682 74.9525 89.0011C74.9677 89.034 74.978 89.0721 74.9833 89.1154L75.0687 89.8104L74.8167 89.8414L74.7313 89.1464C74.7272 89.1134 74.7158 89.0896 74.6969 89.0749C74.6786 89.0594 74.6523 89.0538 74.6181 89.058L74.3913 89.0859C74.4035 89.1159 74.4118 89.1489 74.4163 89.1851L74.5017 89.8801Z" fill="#2D2E2E"/>
<path d="M65.3027 91.9846L51.0576 93.7366C50.8864 93.7574 50.731 93.6353 50.71 93.4641C50.6891 93.293 50.8104 93.1376 50.9814 93.1165L65.3027 91.3547V91.9846ZM92.4346 88.0188C92.6057 87.998 92.7612 88.1201 92.7822 88.2913C92.8032 88.4623 92.6818 88.6176 92.5107 88.6389L77.7129 90.4583V89.8284L92.4346 88.0188Z" fill="#2D2E2E"/>
</g>
<path d="M41.9863 116.298V111.298" stroke="#2D2E2E" stroke-width="0.625" stroke-linecap="round"/>
<path d="M146.986 103.299V98.2986" stroke="#2D2E2E" stroke-width="0.625" stroke-linecap="round"/>
<path d="M96.7317 107.105L95.4552 107.262L95.3979 106.796C95.395 106.772 95.3944 106.747 95.3964 106.72C95.3988 106.692 95.4043 106.664 95.4126 106.636C95.421 106.608 95.4328 106.581 95.4479 106.555C95.4637 106.529 95.4834 106.505 95.5071 106.484C95.5312 106.462 95.5598 106.443 95.5927 106.428C95.6256 106.413 95.6637 106.402 95.707 106.397L96.275 106.327C96.3092 106.323 96.3334 106.312 96.3475 106.293C96.3621 106.273 96.3674 106.247 96.3634 106.214L96.3497 106.103C96.3455 106.068 96.3339 106.044 96.3149 106.028C96.296 106.013 96.2704 106.007 96.238 106.011L95.4287 106.111L95.3977 105.859L96.2071 105.759C96.2497 105.754 96.2888 105.755 96.3244 105.761C96.36 105.768 96.3919 105.779 96.42 105.795C96.4488 105.81 96.474 105.828 96.4956 105.85C96.5173 105.871 96.5356 105.894 96.5505 105.92C96.566 105.944 96.5779 105.969 96.5864 105.996C96.5955 106.022 96.6015 106.046 96.6043 106.069L96.6183 106.183C96.6263 106.248 96.6211 106.305 96.6028 106.353C96.585 106.4 96.5601 106.44 96.5281 106.473C96.4959 106.505 96.46 106.531 96.4202 106.549C96.381 106.566 96.3437 106.577 96.3081 106.581L95.7382 106.651C95.7175 106.654 95.7014 106.659 95.6898 106.666C95.6783 106.673 95.6695 106.682 95.6636 106.693C95.6584 106.703 95.6549 106.715 95.6531 106.727C95.6514 106.74 95.6503 106.753 95.6499 106.765L95.6762 106.979L96.7008 106.853L96.7317 107.105ZM98.5038 106.297C98.5108 106.354 98.51 106.409 98.5014 106.462C98.4934 106.514 98.4788 106.563 98.4576 106.61C98.4364 106.656 98.4099 106.699 98.3779 106.738C98.3459 106.776 98.3098 106.811 98.2695 106.841C98.2298 106.87 98.1865 106.894 98.1396 106.913C98.0928 106.932 98.0441 106.944 97.9937 106.95L97.5391 107.006C97.4881 107.012 97.4375 107.012 97.3875 107.005C97.3374 106.998 97.2893 106.985 97.2431 106.967C97.1974 106.948 97.1544 106.923 97.114 106.893C97.0736 106.863 97.0375 106.828 97.0056 106.788C96.9745 106.748 96.9484 106.704 96.9273 106.655C96.9068 106.606 96.8931 106.553 96.8861 106.496L96.8582 106.269C96.8477 106.184 96.8539 106.104 96.8768 106.029C96.9004 105.954 96.9359 105.888 96.9832 105.83C97.0305 105.772 97.0873 105.724 97.1536 105.687C97.2204 105.649 97.292 105.626 97.3682 105.616L97.8228 105.56C97.8732 105.554 97.9234 105.555 97.9735 105.562C98.0236 105.569 98.0714 105.582 98.1171 105.601C98.1633 105.62 98.2066 105.644 98.247 105.674C98.2874 105.703 98.3235 105.738 98.3553 105.778C98.3872 105.818 98.4133 105.863 98.4338 105.912C98.4549 105.961 98.4689 106.014 98.4759 106.07L98.5038 106.297ZM98.2219 106.102C98.2158 106.052 98.2012 106.008 98.1781 105.969C98.155 105.931 98.1265 105.899 98.0925 105.874C98.0592 105.848 98.0219 105.83 97.9806 105.819C97.9393 105.809 97.897 105.806 97.8538 105.812L97.3992 105.868C97.3571 105.873 97.317 105.885 97.2789 105.906C97.2413 105.925 97.2088 105.952 97.1813 105.985C97.1544 106.017 97.1342 106.055 97.1205 106.098C97.1074 106.141 97.104 106.188 97.1102 106.238L97.1381 106.465C97.1443 106.516 97.1589 106.56 97.182 106.599C97.2051 106.637 97.2336 106.669 97.2676 106.694C97.3015 106.719 97.3391 106.737 97.3804 106.747C97.4223 106.758 97.4649 106.76 97.5082 106.754L97.9627 106.698C98.0125 106.692 98.0564 106.679 98.0945 106.658C98.1331 106.636 98.1649 106.609 98.1897 106.576C98.2146 106.543 98.2323 106.506 98.2429 106.464C98.2534 106.422 98.2557 106.376 98.2498 106.328L98.2219 106.102ZM98.0898 105.931C98.1012 105.944 98.1096 105.959 98.1149 105.975C98.1201 105.991 98.1221 106.007 98.1208 106.024C98.1195 106.039 98.1149 106.055 98.1069 106.071C98.0996 106.085 98.089 106.098 98.0754 106.11L97.4508 106.648C97.4409 106.658 97.4303 106.665 97.4191 106.67C97.4078 106.674 97.3961 106.677 97.3838 106.679C97.3631 106.682 97.3428 106.679 97.3229 106.672C97.3029 106.664 97.2861 106.652 97.2722 106.636C97.2608 106.623 97.2524 106.608 97.2472 106.592C97.2419 106.576 97.2396 106.56 97.2403 106.544C97.2415 106.528 97.2458 106.512 97.2532 106.497C97.2605 106.482 97.271 106.469 97.2847 106.457L97.9111 105.919C97.9242 105.907 97.9385 105.899 97.9543 105.894C97.9707 105.888 97.9869 105.886 98.0028 105.888C98.0193 105.889 98.0349 105.893 98.0496 105.9C98.0649 105.908 98.0783 105.918 98.0898 105.931ZM100.384 106.656L100.132 106.687L100.046 105.992C100.042 105.959 100.031 105.936 100.011 105.921C99.9915 105.906 99.9646 105.9 99.9304 105.904L99.6027 105.945L99.7006 106.74L99.4486 106.771L99.3351 105.849C99.333 105.831 99.3342 105.815 99.3389 105.799C99.3434 105.783 99.3508 105.768 99.3611 105.756C99.3713 105.743 99.3838 105.732 99.3985 105.724C99.4132 105.715 99.4293 105.71 99.4467 105.708L99.9013 105.652C99.9362 105.648 99.9744 105.649 100.016 105.657C100.058 105.664 100.098 105.679 100.138 105.702L100.128 105.624L100.469 105.582C100.493 105.579 100.519 105.579 100.546 105.582C100.573 105.584 100.6 105.589 100.628 105.597C100.656 105.606 100.683 105.618 100.709 105.634C100.735 105.649 100.759 105.668 100.78 105.693C100.801 105.716 100.82 105.745 100.835 105.777C100.85 105.81 100.86 105.848 100.865 105.892L100.951 106.587L100.699 106.618L100.613 105.923C100.609 105.89 100.598 105.866 100.579 105.851C100.561 105.836 100.535 105.83 100.5 105.834L100.273 105.862C100.286 105.892 100.294 105.925 100.298 105.961L100.384 106.656ZM102.119 106.443L101.867 106.474L101.781 105.779C101.777 105.746 101.766 105.722 101.746 105.708C101.727 105.692 101.7 105.687 101.665 105.691L101.338 105.731L101.436 106.527L101.184 106.558L101.07 105.635C101.068 105.618 101.069 105.601 101.074 105.586C101.078 105.569 101.086 105.555 101.096 105.543C101.106 105.53 101.119 105.519 101.133 105.51C101.148 105.502 101.164 105.497 101.182 105.495L101.636 105.439C101.671 105.435 101.709 105.436 101.751 105.443C101.793 105.451 101.833 105.466 101.873 105.488L101.863 105.411L102.204 105.369C102.228 105.366 102.254 105.366 102.281 105.368C102.308 105.37 102.335 105.375 102.363 105.384C102.39 105.392 102.418 105.404 102.444 105.42C102.47 105.435 102.494 105.455 102.515 105.479C102.536 105.503 102.554 105.531 102.57 105.564C102.585 105.597 102.595 105.635 102.6 105.678L102.686 106.373L102.434 106.404L102.348 105.709C102.344 105.676 102.333 105.653 102.314 105.638C102.296 105.622 102.27 105.617 102.235 105.621L102.008 105.649C102.021 105.679 102.029 105.712 102.033 105.748L102.119 106.443Z" fill="#2D2E2E"/>
<path d="M91.0537 107.643L42.5254 113.611C42.3541 113.632 42.1978 113.509 42.1768 113.338C42.156 113.167 42.2773 113.012 42.4482 112.99L91.0537 107.013V107.643ZM146.664 100.176C146.835 100.155 146.99 100.276 147.012 100.448C147.033 100.619 146.911 100.775 146.74 100.796L108.054 105.553V104.923L146.664 100.176Z" fill="#2D2E2E"/>
<path d="M29.7793 0.297607L34.7048 0.297607" stroke="#2D2E2E" stroke-width="0.625" stroke-linecap="round"/>
<path d="M29.8984 105.16H34.4598" stroke="#2D2E2E" stroke-width="0.625" stroke-linecap="round"/>
<path d="M32.1797 0.3125L32.2654 40.6367" stroke="#2D2E2E" stroke-width="0.625" stroke-linecap="round"/>
<path d="M32.1797 64.8367L32.2654 105.161" stroke="#2D2E2E" stroke-width="0.625" stroke-linecap="round"/>
<path d="M30.376 52.8748H29.0898V52.405C29.0898 52.3809 29.0924 52.3556 29.0977 52.3289C29.1035 52.3015 29.1123 52.2745 29.124 52.2478C29.1357 52.2211 29.1507 52.1957 29.1689 52.1716C29.1878 52.1475 29.2103 52.1264 29.2363 52.1082C29.263 52.0893 29.2936 52.0743 29.3281 52.0632C29.3626 52.0522 29.4017 52.0466 29.4453 52.0466H30.0176C30.0521 52.0466 30.0775 52.0382 30.0938 52.0212C30.1107 52.0037 30.1191 51.9783 30.1191 51.9451V51.8328C30.1191 51.7983 30.1107 51.7722 30.0938 51.7546C30.0768 51.7371 30.0521 51.7283 30.0195 51.7283H29.2041V51.4744H30.0195C30.0625 51.4744 30.1012 51.4799 30.1357 51.491C30.1702 51.502 30.2005 51.517 30.2266 51.5359C30.2533 51.5541 30.276 51.5753 30.2949 51.5994C30.3138 51.6235 30.3291 51.6488 30.3408 51.6755C30.3532 51.7016 30.362 51.7283 30.3672 51.7556C30.373 51.7823 30.376 51.8074 30.376 51.8308V51.9451C30.376 52.0108 30.3639 52.0665 30.3398 52.1121C30.3164 52.157 30.2868 52.1938 30.251 52.2224C30.2152 52.2504 30.1764 52.2709 30.1348 52.2839C30.0938 52.2963 30.0553 52.3025 30.0195 52.3025H29.4453C29.4245 52.3025 29.4079 52.3054 29.3955 52.3113C29.3831 52.3171 29.3734 52.325 29.3662 52.3347C29.3597 52.3445 29.3548 52.3556 29.3516 52.3679C29.3483 52.3803 29.3457 52.3927 29.3438 52.405V52.6208H30.376V52.8748ZM32.2334 52.2888C32.2334 52.3461 32.2259 52.4005 32.2109 52.4519C32.1966 52.5027 32.1761 52.5499 32.1494 52.5935C32.1227 52.6371 32.0911 52.6762 32.0547 52.7107C32.0182 52.7452 31.9782 52.7748 31.9346 52.7996C31.8916 52.8236 31.8457 52.8422 31.7969 52.8552C31.748 52.8682 31.6982 52.8748 31.6475 52.8748H31.1895C31.138 52.8748 31.0879 52.8682 31.0391 52.8552C30.9902 52.8422 30.944 52.8236 30.9004 52.7996C30.8574 52.7748 30.8177 52.7452 30.7812 52.7107C30.7448 52.6762 30.7132 52.6371 30.6865 52.5935C30.6605 52.5499 30.64 52.5027 30.625 52.4519C30.6107 52.4005 30.6035 52.3461 30.6035 52.2888V52.0603C30.6035 51.9744 30.6195 51.8956 30.6514 51.824C30.6839 51.7524 30.7272 51.6908 30.7812 51.6394C30.8353 51.5873 30.8975 51.547 30.9678 51.5183C31.0387 51.489 31.1126 51.4744 31.1895 51.4744H31.6475C31.6982 51.4744 31.748 51.4809 31.7969 51.4939C31.8457 51.5069 31.8916 51.5258 31.9346 51.5505C31.9782 51.5746 32.0182 51.6039 32.0547 51.6384C32.0911 51.6729 32.1227 51.712 32.1494 51.7556C32.1761 51.7992 32.1966 51.8468 32.2109 51.8982C32.2259 51.949 32.2334 52.003 32.2334 52.0603V52.2888ZM31.9775 52.0603C31.9775 52.0102 31.9684 51.9646 31.9502 51.9236C31.932 51.8826 31.9076 51.8474 31.877 51.8181C31.847 51.7888 31.8122 51.7664 31.7725 51.7507C31.7327 51.7351 31.6911 51.7276 31.6475 51.7283H31.1895C31.1471 51.7276 31.1058 51.7351 31.0654 51.7507C31.0257 51.7657 30.9902 51.7878 30.959 51.8171C30.9284 51.8458 30.9036 51.8809 30.8848 51.9226C30.8665 51.9636 30.8574 52.0095 30.8574 52.0603V52.2888C30.8574 52.3396 30.8665 52.3855 30.8848 52.4265C30.903 52.4675 30.9274 52.5027 30.958 52.532C30.9886 52.5606 31.0238 52.5828 31.0635 52.5984C31.1038 52.614 31.1458 52.6215 31.1895 52.6208H31.6475C31.6976 52.6208 31.7428 52.6127 31.7832 52.5964C31.8242 52.5795 31.859 52.5564 31.8877 52.5271C31.9163 52.4978 31.9385 52.463 31.9541 52.4226C31.9697 52.3816 31.9775 52.337 31.9775 52.2888V52.0603ZM31.8672 51.8748C31.877 51.8891 31.8835 51.9047 31.8867 51.9216C31.89 51.9379 31.89 51.9542 31.8867 51.9705C31.8835 51.9861 31.877 52.0011 31.8672 52.0154C31.8581 52.0291 31.846 52.0408 31.8311 52.0505L31.1455 52.5085C31.1344 52.517 31.123 52.5229 31.1113 52.5261C31.0996 52.5294 31.0876 52.531 31.0752 52.531C31.0544 52.531 31.0345 52.5261 31.0156 52.5164C30.9967 52.5066 30.9814 52.4926 30.9697 52.4744C30.96 52.46 30.9535 52.4447 30.9502 52.4285C30.9469 52.4115 30.9466 52.3953 30.9492 52.3796C30.9525 52.3634 30.9587 52.3484 30.9678 52.3347C30.9769 52.3204 30.9889 52.3083 31.0039 52.2986L31.6914 51.8406C31.7057 51.8308 31.721 51.8243 31.7373 51.821C31.7542 51.8178 31.7705 51.8178 31.7861 51.821C31.8024 51.8243 31.8174 51.8305 31.8311 51.8396C31.8454 51.8487 31.8574 51.8604 31.8672 51.8748ZM34.0557 52.8748H33.8018V52.1746C33.8018 52.1414 33.793 52.1163 33.7754 52.0994C33.7578 52.0818 33.7318 52.073 33.6973 52.073H33.3672V52.8748H33.1133V51.9451C33.1133 51.9275 33.1165 51.9112 33.123 51.8962C33.1296 51.8806 33.1387 51.8673 33.1504 51.8562C33.1621 51.8445 33.1758 51.8354 33.1914 51.8289C33.207 51.8223 33.2236 51.8191 33.2412 51.8191H33.6992C33.7344 51.8191 33.7721 51.8253 33.8125 51.8376C33.8529 51.85 33.8913 51.8699 33.9277 51.8972V51.8191H34.2715C34.2956 51.8191 34.321 51.822 34.3477 51.8279C34.3743 51.8331 34.4007 51.8416 34.4268 51.8533C34.4535 51.865 34.4788 51.8803 34.5029 51.8992C34.527 51.9174 34.5482 51.9399 34.5664 51.9666C34.5846 51.9926 34.5993 52.0229 34.6104 52.0574C34.6214 52.0919 34.627 52.1309 34.627 52.1746V52.8748H34.373V52.1746C34.373 52.1414 34.3646 52.1163 34.3477 52.0994C34.3314 52.0818 34.306 52.073 34.2715 52.073H34.043C34.0514 52.1042 34.0557 52.1381 34.0557 52.1746V52.8748ZM35.8037 52.8748H35.5498V52.1746C35.5498 52.1414 35.541 52.1163 35.5234 52.0994C35.5059 52.0818 35.4798 52.073 35.4453 52.073H35.1152V52.8748H34.8613V51.9451C34.8613 51.9275 34.8646 51.9112 34.8711 51.8962C34.8776 51.8806 34.8867 51.8673 34.8984 51.8562C34.9102 51.8445 34.9238 51.8354 34.9395 51.8289C34.9551 51.8223 34.9717 51.8191 34.9893 51.8191H35.4473C35.4824 51.8191 35.5202 51.8253 35.5605 51.8376C35.6009 51.85 35.6393 51.8699 35.6758 51.8972V51.8191H36.0195C36.0436 51.8191 36.069 51.822 36.0957 51.8279C36.1224 51.8331 36.1488 51.8416 36.1748 51.8533C36.2015 51.865 36.2269 51.8803 36.251 51.8992C36.2751 51.9174 36.2962 51.9399 36.3145 51.9666C36.3327 51.9926 36.3473 52.0229 36.3584 52.0574C36.3695 52.0919 36.375 52.1309 36.375 52.1746V52.8748H36.1211V52.1746C36.1211 52.1414 36.1126 52.1163 36.0957 52.0994C36.0794 52.0818 36.054 52.073 36.0195 52.073H35.791C35.7995 52.1042 35.8037 52.1381 35.8037 52.1746V52.8748Z" fill="#2D2E2E"/>
<path d="M36.625 136.891L32.875 157.891C32.7917 158.308 32.6042 158.667 32.3125 158.969C32.0208 159.272 31.6667 159.464 31.25 159.548C30.8229 159.621 30.4167 159.574 30.0312 159.407C29.6562 159.24 29.3594 158.98 29.1406 158.626L21.7031 146.407L14.25 158.626C14.0729 158.928 13.8281 159.162 13.5156 159.329C13.2135 159.496 12.8854 159.579 12.5312 159.579C12.0417 159.579 11.6094 159.423 11.2344 159.11C10.8594 158.798 10.6302 158.391 10.5469 157.891L6.76562 136.891H10.8906L13.5781 151.688L19.9844 141.469C20.1615 141.167 20.401 140.933 20.7031 140.766C21.0156 140.6 21.349 140.516 21.7031 140.516C22.0573 140.516 22.3854 140.6 22.6875 140.766C22.9896 140.933 23.2396 141.167 23.4375 141.469L29.8125 151.688L32.5 136.891H36.625ZM57.5938 153.594C57.5938 154.292 57.5052 154.923 57.3281 155.485C57.151 156.037 56.9167 156.527 56.625 156.954C56.3333 157.371 55.9948 157.73 55.6094 158.032C55.224 158.324 54.8177 158.563 54.3906 158.751C53.974 158.938 53.5469 159.079 53.1094 159.173C52.6823 159.256 52.276 159.298 51.8906 159.298H44.5625C44 159.298 43.3854 159.199 42.7188 159.001C42.0521 158.803 41.4323 158.48 40.8594 158.032C40.2969 157.574 39.8229 156.985 39.4375 156.266C39.0625 155.537 38.875 154.647 38.875 153.594V148.094C38.875 147.053 39.0625 146.173 39.4375 145.454C39.8229 144.725 40.2969 144.136 40.8594 143.688C41.4323 143.23 42.0521 142.902 42.7188 142.704C43.3854 142.506 44 142.407 44.5625 142.407H51.8906C52.9323 142.407 53.8177 142.594 54.5469 142.969C55.276 143.344 55.8646 143.818 56.3125 144.391C56.7604 144.954 57.0833 145.568 57.2812 146.235C57.4896 146.902 57.5938 147.522 57.5938 148.094V153.594ZM53.5312 148.126C53.5312 147.563 53.3906 147.147 53.1094 146.876C52.8281 146.605 52.4219 146.469 51.8906 146.469H44.5938C44.0521 146.469 43.6406 146.61 43.3594 146.891C43.0781 147.162 42.9375 147.563 42.9375 148.094V153.594C42.9375 154.126 43.0781 154.532 43.3594 154.813C43.6406 155.094 44.0521 155.235 44.5938 155.235H51.8906C52.4427 155.235 52.8542 155.094 53.125 154.813C53.3958 154.532 53.5312 154.126 53.5312 153.594V148.126ZM75.8438 146.469H66.7031C66.151 146.469 65.7344 146.61 65.4531 146.891C65.1719 147.162 65.0312 147.563 65.0312 148.094V159.298H60.9688V148.094C60.9688 147.397 61.0573 146.772 61.2344 146.219C61.4115 145.667 61.6458 145.183 61.9375 144.766C62.2396 144.339 62.5833 143.98 62.9688 143.688C63.3542 143.386 63.7552 143.141 64.1719 142.954C64.599 142.766 65.026 142.631 65.4531 142.548C65.8906 142.454 66.2969 142.407 66.6719 142.407H75.8438V146.469ZM98.375 159.298H92.5156L84.3281 151.391C83.8698 150.975 83.6562 150.454 83.6875 149.829C83.7083 149.537 83.7812 149.266 83.9062 149.016C84.0417 148.756 84.224 148.537 84.4531 148.36L91.875 142.376H98.375L88.8125 150.079L98.375 159.298ZM82.6562 159.298H78.5938V135.266H82.6562V159.298ZM104.781 138.938H100.719V135.266H104.781V138.938ZM104.781 159.298H100.719V142.407H104.781V159.298ZM127.406 159.298H123.344V149.923C123.344 149.391 123.25 148.917 123.062 148.501C122.885 148.074 122.641 147.709 122.328 147.407C122.016 147.105 121.646 146.876 121.219 146.719C120.802 146.553 120.349 146.469 119.859 146.469H112.75V159.298H108.688V144.423C108.688 144.141 108.74 143.881 108.844 143.641C108.948 143.391 109.094 143.178 109.281 143.001C109.469 142.813 109.688 142.667 109.938 142.563C110.188 142.459 110.453 142.407 110.734 142.407H119.891C120.401 142.407 120.938 142.464 121.5 142.579C122.073 142.693 122.635 142.881 123.188 143.141C123.75 143.391 124.281 143.714 124.781 144.11C125.292 144.496 125.74 144.969 126.125 145.532C126.521 146.084 126.833 146.725 127.062 147.454C127.292 148.183 127.406 149.006 127.406 149.923V159.298ZM149.344 160.923C149.344 161.621 149.255 162.246 149.078 162.798C148.901 163.36 148.667 163.85 148.375 164.266C148.083 164.693 147.745 165.053 147.359 165.344C146.974 165.647 146.568 165.891 146.141 166.079C145.724 166.266 145.297 166.402 144.859 166.485C144.432 166.579 144.026 166.626 143.641 166.626H136.312V162.563H143.641C144.193 162.563 144.604 162.423 144.875 162.141C145.146 161.86 145.281 161.454 145.281 160.923V148.094C145.281 147.563 145.146 147.162 144.875 146.891C144.604 146.61 144.193 146.469 143.641 146.469H136.312C135.812 146.469 135.417 146.626 135.125 146.938C134.833 147.24 134.688 147.626 134.688 148.094V153.594C134.688 154.126 134.828 154.532 135.109 154.813C135.391 155.094 135.802 155.235 136.344 155.235H143.641V159.298H136.312C135.927 159.298 135.521 159.256 135.094 159.173C134.667 159.079 134.24 158.938 133.812 158.751C133.396 158.563 132.995 158.324 132.609 158.032C132.224 157.73 131.885 157.371 131.594 156.954C131.302 156.527 131.068 156.037 130.891 155.485C130.714 154.923 130.625 154.292 130.625 153.594V148.094C130.625 147.709 130.667 147.303 130.75 146.876C130.844 146.449 130.984 146.027 131.172 145.61C131.359 145.183 131.599 144.777 131.891 144.391C132.193 144.006 132.552 143.667 132.969 143.376C133.396 143.084 133.885 142.85 134.438 142.673C134.99 142.496 135.615 142.407 136.312 142.407H143.641C144.026 142.407 144.432 142.454 144.859 142.548C145.297 142.631 145.724 142.766 146.141 142.954C146.568 143.141 146.974 143.386 147.359 143.688C147.745 143.98 148.083 144.339 148.375 144.766C148.667 145.183 148.901 145.667 149.078 146.219C149.255 146.772 149.344 147.397 149.344 148.094V160.923ZM169.391 153.594C169.391 154.292 169.302 154.923 169.125 155.485C168.948 156.037 168.714 156.527 168.422 156.954C168.13 157.371 167.792 157.73 167.406 158.032C167.021 158.324 166.615 158.563 166.188 158.751C165.771 158.938 165.344 159.079 164.906 159.173C164.479 159.256 164.073 159.298 163.688 159.298H152.688V155.235H163.656C164.208 155.235 164.625 155.094 164.906 154.813C165.188 154.532 165.328 154.126 165.328 153.594C165.276 152.511 164.729 151.969 163.688 151.969H157.391C156.495 151.969 155.734 151.813 155.109 151.501C154.484 151.188 153.974 150.798 153.578 150.329C153.193 149.86 152.911 149.355 152.734 148.813C152.568 148.272 152.484 147.766 152.484 147.298C152.484 146.391 152.646 145.631 152.969 145.016C153.292 144.391 153.698 143.886 154.188 143.501C154.677 143.115 155.208 142.839 155.781 142.673C156.354 142.496 156.891 142.407 157.391 142.407H167.375V146.469H157.422C157.214 146.469 157.047 146.496 156.922 146.548C156.807 146.589 156.719 146.652 156.656 146.735C156.604 146.808 156.573 146.891 156.562 146.985C156.552 147.068 156.547 147.152 156.547 147.235C156.557 147.402 156.589 147.532 156.641 147.626C156.693 147.719 156.755 147.787 156.828 147.829C156.911 147.871 157 147.897 157.094 147.907C157.198 147.907 157.297 147.907 157.391 147.907H163.688C164.729 147.907 165.615 148.094 166.344 148.469C167.073 148.844 167.661 149.318 168.109 149.891C168.557 150.454 168.88 151.068 169.078 151.735C169.286 152.402 169.391 153.022 169.391 153.594Z" fill="#2D2E2E"/>
<defs>
<clipPath id="clip0_2417_575">
<rect width="105" height="105" fill="white" transform="translate(41.9863 0.297607)"/>
</clipPath>
</defs>
</svg>
