<svg width="292" height="180" viewBox="0 0 292 180" fill="none" xmlns="http://www.w3.org/2000/svg">
<g clip-path="url(#clip0_2416_550)">
<path fill-rule="evenodd" clip-rule="evenodd" d="M118 50.746C117.999 48.9185 117.332 47.154 116.122 45.7842C114.912 44.4143 113.244 43.5333 111.43 43.3067L21.43 32.0579C20.3743 31.926 19.3027 32.0201 18.2862 32.3341C17.2697 32.6481 16.3317 33.1748 15.5344 33.8791C14.7371 34.5834 14.0987 35.4493 13.6618 36.4192C13.2248 37.3891 12.9992 38.4408 13 39.5046V129.495C12.9992 130.559 13.2248 131.611 13.6618 132.581C14.0987 133.551 14.7371 134.417 15.5344 135.121C16.3317 135.825 17.2697 136.352 18.2862 136.666C19.3027 136.98 20.3743 137.074 21.43 136.942L111.43 125.693C113.244 125.467 114.912 124.586 116.122 123.216C117.332 121.846 117.999 120.082 118 118.254V50.761V50.746ZM110.5 88.2421V118.239L73 122.926V88.2796H110.5V88.2421ZM73 80.7429H110.5V50.746L73 46.0589V80.7054V80.7429ZM65.5 88.2421V123.863L20.5 129.488V88.2421H65.5ZM20.5 80.7429H65.5V45.1215L20.5 39.4971V80.7429Z" fill="#2D2E2E"/>
<path d="M21.9971 128.037V123.013" stroke="#2D2E2E" stroke-width="0.625" stroke-linecap="round"/>
<path d="M64 123.078V118.054" stroke="#2D2E2E" stroke-width="0.625" stroke-linecap="round"/>
<path d="M40.2503 123.237L38.9738 123.394L38.9164 122.928C38.9135 122.904 38.913 122.879 38.9149 122.852C38.9174 122.824 38.9228 122.796 38.9312 122.768C38.9395 122.74 38.9513 122.713 38.9665 122.687C38.9823 122.661 39.002 122.637 39.0256 122.616C39.0498 122.594 39.0783 122.575 39.1112 122.56C39.1441 122.545 39.1822 122.534 39.2255 122.529L39.7935 122.459C39.8277 122.455 39.8519 122.444 39.866 122.425C39.8806 122.405 39.886 122.379 39.8819 122.346L39.8682 122.235C39.864 122.2 39.8524 122.176 39.8335 122.16C39.8145 122.145 39.7889 122.139 39.7566 122.143L38.9472 122.243L38.9163 121.991L39.7256 121.891C39.7682 121.886 39.8074 121.887 39.843 121.893C39.8786 121.9 39.9104 121.911 39.9386 121.927C39.9673 121.942 39.9925 121.96 40.0142 121.981C40.0359 122.003 40.0541 122.026 40.069 122.051C40.0845 122.076 40.0965 122.101 40.105 122.128C40.114 122.153 40.12 122.178 40.1229 122.201L40.1368 122.315C40.1448 122.38 40.1397 122.437 40.1213 122.485C40.1036 122.532 40.0786 122.572 40.0466 122.605C40.0145 122.637 39.9785 122.662 39.9388 122.68C39.8996 122.698 39.8622 122.709 39.8267 122.713L39.2567 122.783C39.2361 122.786 39.2199 122.79 39.2084 122.798C39.1968 122.805 39.1881 122.814 39.1822 122.825C39.1769 122.835 39.1734 122.847 39.1717 122.859C39.1699 122.872 39.1689 122.885 39.1684 122.897L39.1948 123.111L40.2193 122.985L40.2503 123.237ZM42.0223 122.429C42.0293 122.486 42.0285 122.541 42.0199 122.594C42.0119 122.646 41.9973 122.695 41.9761 122.742C41.955 122.788 41.9284 122.831 41.8964 122.87C41.8644 122.908 41.8283 122.943 41.788 122.973C41.7483 123.002 41.705 123.026 41.6582 123.045C41.6113 123.064 41.5627 123.076 41.5123 123.082L41.0577 123.138C41.0066 123.144 40.9561 123.144 40.906 123.137C40.856 123.13 40.8078 123.117 40.7616 123.099C40.7159 123.079 40.6729 123.055 40.6325 123.025C40.5921 122.995 40.556 122.96 40.5242 122.92C40.493 122.88 40.4669 122.836 40.4458 122.787C40.4253 122.738 40.4116 122.685 40.4046 122.628L40.3767 122.401C40.3662 122.316 40.3724 122.236 40.3954 122.161C40.4189 122.086 40.4544 122.019 40.5018 121.962C40.549 121.904 40.6058 121.856 40.6721 121.819C40.739 121.781 40.8105 121.758 40.8868 121.748L41.3413 121.692C41.3917 121.686 41.442 121.687 41.492 121.693C41.5421 121.7 41.5899 121.714 41.6356 121.733C41.6818 121.751 41.7252 121.776 41.7656 121.805C41.8059 121.835 41.8421 121.87 41.8739 121.91C41.9057 121.95 41.9318 121.995 41.9523 122.044C41.9734 122.093 41.9874 122.146 41.9944 122.202L42.0223 122.429ZM41.7405 122.234C41.7344 122.184 41.7197 122.14 41.6966 122.101C41.6735 122.063 41.645 122.031 41.6111 122.005C41.5778 121.98 41.5405 121.962 41.4991 121.951C41.4578 121.941 41.4155 121.938 41.3723 121.944L40.9178 122C40.8757 122.005 40.8356 122.017 40.7974 122.038C40.7598 122.057 40.7273 122.084 40.6999 122.117C40.673 122.149 40.6527 122.187 40.6391 122.23C40.626 122.273 40.6225 122.32 40.6287 122.37L40.6566 122.597C40.6628 122.648 40.6775 122.692 40.7006 122.73C40.7237 122.769 40.7522 122.801 40.7861 122.826C40.82 122.851 40.8576 122.869 40.8989 122.879C40.9409 122.89 40.9835 122.892 41.0267 122.886L41.4813 122.83C41.531 122.824 41.5749 122.811 41.613 122.789C41.6517 122.768 41.6834 122.74 41.7083 122.708C41.7331 122.675 41.7508 122.638 41.7614 122.596C41.7719 122.553 41.7742 122.508 41.7684 122.46L41.7405 122.234ZM41.6083 122.063C41.6197 122.076 41.6281 122.091 41.6334 122.107C41.6386 122.123 41.6406 122.139 41.6394 122.156C41.638 122.171 41.6334 122.187 41.6255 122.202C41.6181 122.217 41.6076 122.23 41.5939 122.242L40.9694 122.78C40.9594 122.79 40.9488 122.797 40.9376 122.802C40.9264 122.806 40.9146 122.809 40.9023 122.811C40.8816 122.813 40.8613 122.811 40.8414 122.804C40.8215 122.796 40.8046 122.784 40.7907 122.768C40.7793 122.755 40.771 122.74 40.7657 122.724C40.7604 122.708 40.7581 122.692 40.7588 122.676C40.7601 122.659 40.7644 122.644 40.7717 122.629C40.779 122.614 40.7895 122.6 40.8032 122.589L41.4297 122.05C41.4427 122.039 41.4571 122.031 41.4728 122.025C41.4892 122.02 41.5054 122.018 41.5213 122.019C41.5378 122.021 41.5535 122.025 41.5681 122.032C41.5835 122.04 41.5969 122.05 41.6083 122.063ZM43.9025 122.788L43.6505 122.819L43.565 122.124C43.5609 122.091 43.5492 122.068 43.5296 122.053C43.5101 122.038 43.4831 122.032 43.4489 122.036L43.1213 122.077L43.2191 122.872L42.9671 122.903L42.8537 121.981C42.8515 121.963 42.8528 121.947 42.8574 121.931C42.8619 121.915 42.8694 121.9 42.8796 121.888C42.8898 121.875 42.9023 121.864 42.917 121.856C42.9317 121.847 42.9478 121.842 42.9653 121.84L43.4198 121.784C43.4547 121.78 43.493 121.781 43.5345 121.789C43.5761 121.796 43.6167 121.811 43.6562 121.834L43.6466 121.756L43.9878 121.714C44.0117 121.711 44.0373 121.711 44.0645 121.714C44.0916 121.716 44.1188 121.721 44.1461 121.729C44.174 121.738 44.2011 121.75 44.2273 121.765C44.2534 121.781 44.2772 121.8 44.2985 121.825C44.3198 121.848 44.338 121.876 44.3532 121.909C44.3684 121.942 44.3787 121.98 44.384 122.024L44.4695 122.719L44.2175 122.75L44.132 122.055C44.128 122.022 44.1165 121.998 44.0976 121.983C44.0793 121.968 44.0531 121.962 44.0188 121.966L43.792 121.994C43.8042 122.024 43.8126 122.057 43.817 122.093L43.9025 122.788ZM45.6374 122.575L45.3854 122.606L45.3 121.911C45.2959 121.878 45.2841 121.854 45.2646 121.84C45.245 121.824 45.2181 121.819 45.1839 121.823L44.8563 121.863L44.9541 122.659L44.7021 122.69L44.5886 121.767C44.5865 121.75 44.5877 121.733 44.5924 121.718C44.5969 121.701 44.6043 121.687 44.6146 121.675C44.6248 121.661 44.6373 121.651 44.652 121.642C44.6667 121.634 44.6828 121.629 44.7002 121.627L45.1548 121.571C45.1897 121.566 45.2279 121.568 45.2695 121.575C45.3111 121.583 45.3516 121.598 45.3912 121.62L45.3816 121.543L45.7228 121.501C45.7467 121.498 45.7723 121.498 45.7995 121.5C45.8266 121.502 45.8538 121.507 45.8811 121.516C45.909 121.524 45.9361 121.536 45.9623 121.552C45.9884 121.567 46.0122 121.587 46.0335 121.611C46.0548 121.635 46.073 121.663 46.0882 121.696C46.1034 121.729 46.1137 121.767 46.119 121.81L46.2045 122.505L45.9524 122.536L45.867 121.841C45.8629 121.808 45.8515 121.785 45.8326 121.77C45.8143 121.754 45.788 121.749 45.7538 121.753L45.527 121.781C45.5392 121.811 45.5475 121.844 45.552 121.88L45.6374 122.575Z" fill="#2D2E2E"/>
<path d="M36.3174 123.687L22.0723 125.439C21.901 125.46 21.7457 125.338 21.7246 125.167C21.7037 124.995 21.8249 124.84 21.9961 124.819L36.3174 123.057V123.687ZM63.4482 119.721C63.6195 119.7 63.7758 119.822 63.7969 119.994C63.8178 120.165 63.6956 120.32 63.5244 120.341L48.7275 122.161V121.531L63.4482 119.721Z" fill="#2D2E2E"/>
</g>
<path d="M13 148V143" stroke="#2D2E2E" stroke-width="0.625" stroke-linecap="round"/>
<path d="M118 135.001V130.001" stroke="#2D2E2E" stroke-width="0.625" stroke-linecap="round"/>
<path d="M67.7454 138.808L66.4689 138.965L66.4115 138.499C66.4086 138.475 66.4081 138.449 66.41 138.422C66.4125 138.394 66.4179 138.366 66.4263 138.339C66.4347 138.311 66.4464 138.284 66.4616 138.257C66.4774 138.231 66.4971 138.207 66.5207 138.186C66.5449 138.164 66.5734 138.146 66.6063 138.13C66.6392 138.115 66.6773 138.105 66.7206 138.1L67.2886 138.03C67.3229 138.026 67.347 138.014 67.3611 137.995C67.3758 137.976 67.3811 137.95 67.377 137.917L67.3633 137.805C67.3591 137.771 67.3475 137.746 67.3286 137.731C67.3096 137.715 67.284 137.71 67.2517 137.714L66.4424 137.813L66.4114 137.561L67.2207 137.462C67.2634 137.456 67.3025 137.457 67.3381 137.464C67.3737 137.471 67.4055 137.482 67.4337 137.497C67.4624 137.512 67.4876 137.53 67.5093 137.552C67.531 137.574 67.5493 137.597 67.5641 137.622C67.5796 137.646 67.5916 137.672 67.6001 137.698C67.6092 137.724 67.6151 137.749 67.618 137.772L67.6319 137.885C67.64 137.951 67.6348 138.007 67.6164 138.055C67.5987 138.103 67.5738 138.143 67.5417 138.176C67.5096 138.208 67.4736 138.233 67.4339 138.251C67.3947 138.268 67.3573 138.279 67.3218 138.283L66.7518 138.354C66.7312 138.356 66.715 138.361 66.7035 138.368C66.6919 138.376 66.6832 138.385 66.6773 138.395C66.672 138.406 66.6685 138.417 66.6668 138.43C66.6651 138.443 66.664 138.455 66.6636 138.468L66.6899 138.682L67.7144 138.556L67.7454 138.808ZM69.5174 138C69.5244 138.057 69.5236 138.111 69.515 138.164C69.507 138.216 69.4924 138.266 69.4713 138.312C69.4501 138.359 69.4235 138.402 69.3915 138.44C69.3596 138.479 69.3234 138.513 69.2832 138.543C69.2435 138.572 69.2002 138.596 69.1533 138.615C69.1064 138.634 69.0578 138.647 69.0074 138.653L68.5528 138.709C68.5017 138.715 68.4512 138.715 68.4011 138.708C68.3511 138.701 68.3029 138.688 68.2567 138.669C68.211 138.65 68.168 138.625 68.1276 138.596C68.0872 138.566 68.0511 138.531 68.0193 138.491C67.9881 138.451 67.962 138.406 67.9409 138.358C67.9205 138.309 67.9067 138.256 67.8997 138.199L67.8718 137.972C67.8613 137.887 67.8676 137.806 67.8905 137.731C67.9141 137.656 67.9495 137.59 67.9969 137.532C68.0441 137.474 68.1009 137.426 68.1672 137.389C68.2341 137.352 68.3056 137.328 68.3819 137.319L68.8365 137.263C68.8869 137.257 68.9371 137.257 68.9871 137.264C69.0372 137.271 69.0851 137.284 69.1307 137.303C69.177 137.322 69.2203 137.346 69.2607 137.376C69.3011 137.406 69.3372 137.441 69.369 137.481C69.4008 137.521 69.427 137.565 69.4475 137.615C69.4685 137.663 69.4825 137.716 69.4895 137.773L69.5174 138ZM69.2356 137.804C69.2295 137.754 69.2149 137.71 69.1918 137.672C69.1687 137.633 69.1401 137.601 69.1062 137.576C69.0729 137.551 69.0356 137.533 68.9943 137.522C68.9529 137.511 68.9107 137.509 68.8675 137.515L68.4129 137.571C68.3708 137.575 68.3307 137.588 68.2925 137.608C68.2549 137.628 68.2224 137.654 68.195 137.687C68.1681 137.719 68.1478 137.757 68.1342 137.801C68.1211 137.844 68.1176 137.89 68.1238 137.941L68.1517 138.168C68.1579 138.218 68.1726 138.263 68.1957 138.301C68.2188 138.339 68.2473 138.371 68.2812 138.397C68.3151 138.421 68.3527 138.439 68.394 138.45C68.436 138.46 68.4786 138.463 68.5218 138.457L68.9764 138.401C69.0261 138.395 69.0701 138.381 69.1081 138.36C69.1468 138.338 69.1785 138.311 69.2034 138.278C69.2282 138.246 69.246 138.209 69.2565 138.167C69.267 138.124 69.2694 138.079 69.2635 138.031L69.2356 137.804ZM69.1034 137.633C69.1149 137.646 69.1232 137.661 69.1285 137.678C69.1337 137.693 69.1357 137.71 69.1345 137.726C69.1332 137.742 69.1285 137.758 69.1206 137.773C69.1132 137.788 69.1027 137.801 69.089 137.812L68.4645 138.351C68.4545 138.36 68.4439 138.368 68.4327 138.372C68.4215 138.377 68.4097 138.38 68.3974 138.381C68.3768 138.384 68.3565 138.382 68.3365 138.374C68.3166 138.367 68.2997 138.355 68.2858 138.338C68.2744 138.325 68.2661 138.311 68.2609 138.295C68.2556 138.279 68.2532 138.262 68.2539 138.247C68.2552 138.23 68.2595 138.214 68.2669 138.2C68.2742 138.184 68.2846 138.171 68.2983 138.159L68.9248 137.621C68.9378 137.61 68.9522 137.601 68.9679 137.596C68.9844 137.591 69.0005 137.589 69.0164 137.59C69.033 137.591 69.0486 137.596 69.0633 137.603C69.0786 137.61 69.092 137.62 69.1034 137.633ZM71.3976 138.359L71.1456 138.39L71.0601 137.695C71.0561 137.662 71.0443 137.638 71.0248 137.624C71.0052 137.608 70.9783 137.603 70.944 137.607L70.6164 137.647L70.7142 138.443L70.4622 138.474L70.3488 137.551C70.3466 137.534 70.3479 137.517 70.3525 137.502C70.3571 137.485 70.3645 137.471 70.3748 137.458C70.385 137.445 70.3974 137.435 70.4121 137.426C70.4268 137.418 70.4429 137.413 70.4604 137.411L70.915 137.355C70.9499 137.35 70.9881 137.352 71.0297 137.359C71.0712 137.367 71.1118 137.382 71.1513 137.404L71.1418 137.327L71.4829 137.285C71.5069 137.282 71.5324 137.282 71.5596 137.284C71.5867 137.286 71.614 137.291 71.6412 137.3C71.6692 137.308 71.6962 137.32 71.7224 137.336C71.7486 137.351 71.7723 137.371 71.7937 137.395C71.8149 137.419 71.8332 137.447 71.8484 137.48C71.8636 137.513 71.8738 137.551 71.8791 137.594L71.9646 138.289L71.7126 138.32L71.6271 137.625C71.6231 137.592 71.6116 137.568 71.5928 137.554C71.5745 137.538 71.5482 137.533 71.5139 137.537L71.2871 137.565C71.2993 137.595 71.3077 137.628 71.3121 137.664L71.3976 138.359ZM73.1326 138.146L72.8805 138.177L72.7951 137.482C72.791 137.449 72.7793 137.425 72.7597 137.41C72.7402 137.395 72.7132 137.389 72.679 137.394L72.3514 137.434L72.4492 138.23L72.1972 138.261L72.0838 137.338C72.0816 137.32 72.0829 137.304 72.0875 137.288C72.092 137.272 72.0995 137.258 72.1097 137.245C72.1199 137.232 72.1324 137.221 72.1471 137.213C72.1618 137.205 72.1779 137.199 72.1954 137.197L72.6499 137.141C72.6848 137.137 72.7231 137.139 72.7646 137.146C72.8062 137.153 72.8468 137.168 72.8863 137.191L72.8767 137.113L73.2179 137.071C73.2418 137.069 73.2674 137.068 73.2946 137.071C73.3217 137.073 73.3489 137.078 73.3762 137.086C73.4041 137.095 73.4312 137.107 73.4574 137.123C73.4835 137.138 73.5073 137.158 73.5286 137.182C73.5499 137.205 73.5681 137.234 73.5833 137.267C73.5985 137.299 73.6088 137.338 73.6141 137.381L73.6996 138.076L73.4476 138.107L73.3621 137.412C73.3581 137.379 73.3466 137.355 73.3277 137.34C73.3094 137.325 73.2832 137.319 73.2489 137.323L73.0221 137.351C73.0343 137.381 73.0427 137.414 73.0471 137.451L73.1326 138.146Z" fill="#2D2E2E"/>
<path d="M62.0674 139.345L13.5381 145.313C13.3669 145.334 13.2115 145.212 13.1904 145.041C13.1696 144.869 13.2909 144.714 13.4619 144.693L62.0674 138.715V139.345ZM117.678 131.878C117.849 131.858 118.004 131.979 118.025 132.15C118.046 132.321 117.925 132.477 117.754 132.499L79.0674 137.255V136.625L117.678 131.878Z" fill="#2D2E2E"/>
<path d="M0.792969 32H5.71846" stroke="#2D2E2E" stroke-width="0.625" stroke-linecap="round"/>
<path d="M0.912109 136.862H5.47351" stroke="#2D2E2E" stroke-width="0.625" stroke-linecap="round"/>
<path d="M3.19336 32.0149L3.27903 72.3391" stroke="#2D2E2E" stroke-width="0.625" stroke-linecap="round"/>
<path d="M3.19336 96.5391L3.27903 136.863" stroke="#2D2E2E" stroke-width="0.625" stroke-linecap="round"/>
<path d="M1.38965 84.5771H0.103516V84.1074C0.103516 84.0833 0.10612 84.0579 0.111328 84.0312C0.117188 84.0039 0.125977 83.9769 0.137695 83.9502C0.149414 83.9235 0.164388 83.8981 0.182617 83.874C0.201497 83.8499 0.223958 83.8288 0.25 83.8105C0.276693 83.7917 0.307292 83.7767 0.341797 83.7656C0.376302 83.7546 0.415365 83.749 0.458984 83.749H1.03125C1.06576 83.749 1.09115 83.7406 1.10742 83.7236C1.12435 83.7061 1.13281 83.6807 1.13281 83.6475V83.5352C1.13281 83.5007 1.12435 83.4746 1.10742 83.457C1.09049 83.4395 1.06576 83.4307 1.0332 83.4307H0.217773V83.1768H1.0332C1.07617 83.1768 1.11491 83.1823 1.14941 83.1934C1.18392 83.2044 1.21419 83.2194 1.24023 83.2383C1.26693 83.2565 1.28971 83.2777 1.30859 83.3018C1.32747 83.3258 1.34277 83.3512 1.35449 83.3779C1.36686 83.404 1.37565 83.4307 1.38086 83.458C1.38672 83.4847 1.38965 83.5098 1.38965 83.5332V83.6475C1.38965 83.7132 1.3776 83.7689 1.35352 83.8145C1.33008 83.8594 1.30046 83.8962 1.26465 83.9248C1.22884 83.9528 1.1901 83.9733 1.14844 83.9863C1.10742 83.9987 1.06901 84.0049 1.0332 84.0049H0.458984C0.438151 84.0049 0.421549 84.0078 0.40918 84.0137C0.39681 84.0195 0.387044 84.0273 0.379883 84.0371C0.373372 84.0469 0.36849 84.0579 0.365234 84.0703C0.361979 84.0827 0.359375 84.0951 0.357422 84.1074V84.3232H1.38965V84.5771ZM3.24707 83.9912C3.24707 84.0485 3.23958 84.1029 3.22461 84.1543C3.21029 84.2051 3.18978 84.2523 3.16309 84.2959C3.13639 84.3395 3.10482 84.3786 3.06836 84.4131C3.0319 84.4476 2.99186 84.4772 2.94824 84.502C2.90527 84.526 2.85938 84.5446 2.81055 84.5576C2.76172 84.5706 2.71191 84.5771 2.66113 84.5771H2.20312C2.15169 84.5771 2.10156 84.5706 2.05273 84.5576C2.00391 84.5446 1.95768 84.526 1.91406 84.502C1.87109 84.4772 1.83138 84.4476 1.79492 84.4131C1.75846 84.3786 1.72689 84.3395 1.7002 84.2959C1.67415 84.2523 1.65365 84.2051 1.63867 84.1543C1.62435 84.1029 1.61719 84.0485 1.61719 83.9912V83.7627C1.61719 83.6768 1.63314 83.598 1.66504 83.5264C1.69759 83.4548 1.74089 83.3932 1.79492 83.3418C1.84896 83.2897 1.91113 83.2493 1.98145 83.2207C2.05241 83.1914 2.1263 83.1768 2.20312 83.1768H2.66113C2.71191 83.1768 2.76172 83.1833 2.81055 83.1963C2.85938 83.2093 2.90527 83.2282 2.94824 83.2529C2.99186 83.277 3.0319 83.3063 3.06836 83.3408C3.10482 83.3753 3.13639 83.4144 3.16309 83.458C3.18978 83.5016 3.21029 83.5492 3.22461 83.6006C3.23958 83.6514 3.24707 83.7054 3.24707 83.7627V83.9912ZM2.99121 83.7627C2.99121 83.7126 2.9821 83.667 2.96387 83.626C2.94564 83.585 2.92122 83.5498 2.89062 83.5205C2.86068 83.4912 2.82585 83.4688 2.78613 83.4531C2.74642 83.4375 2.70475 83.43 2.66113 83.4307H2.20312C2.16081 83.43 2.11947 83.4375 2.0791 83.4531C2.03939 83.4681 2.00391 83.4902 1.97266 83.5195C1.94206 83.5482 1.91732 83.5833 1.89844 83.625C1.88021 83.666 1.87109 83.7119 1.87109 83.7627V83.9912C1.87109 84.042 1.88021 84.0879 1.89844 84.1289C1.91667 84.1699 1.94108 84.2051 1.97168 84.2344C2.00228 84.263 2.03743 84.2852 2.07715 84.3008C2.11751 84.3164 2.15951 84.3239 2.20312 84.3232H2.66113C2.71126 84.3232 2.75651 84.3151 2.79688 84.2988C2.83789 84.2819 2.87272 84.2588 2.90137 84.2295C2.93001 84.2002 2.95215 84.1654 2.96777 84.125C2.9834 84.084 2.99121 84.0394 2.99121 83.9912V83.7627ZM2.88086 83.5771C2.89062 83.5915 2.89714 83.6071 2.90039 83.624C2.90365 83.6403 2.90365 83.6566 2.90039 83.6729C2.89714 83.6885 2.89062 83.7035 2.88086 83.7178C2.87174 83.7314 2.8597 83.7432 2.84473 83.7529L2.15918 84.2109C2.14811 84.2194 2.13672 84.2253 2.125 84.2285C2.11328 84.2318 2.10124 84.2334 2.08887 84.2334C2.06803 84.2334 2.04818 84.2285 2.0293 84.2188C2.01042 84.209 1.99512 84.195 1.9834 84.1768C1.97363 84.1624 1.96712 84.1471 1.96387 84.1309C1.96061 84.1139 1.96029 84.0977 1.96289 84.082C1.96615 84.0658 1.97233 84.0508 1.98145 84.0371C1.99056 84.0228 2.0026 84.0107 2.01758 84.001L2.70508 83.543C2.7194 83.5332 2.7347 83.5267 2.75098 83.5234C2.7679 83.5202 2.78418 83.5202 2.7998 83.5234C2.81608 83.5267 2.83105 83.5329 2.84473 83.542C2.85905 83.5511 2.87109 83.5628 2.88086 83.5771ZM5.06934 84.5771H4.81543V83.877C4.81543 83.8438 4.80664 83.8187 4.78906 83.8018C4.77148 83.7842 4.74544 83.7754 4.71094 83.7754H4.38086V84.5771H4.12695V83.6475C4.12695 83.6299 4.13021 83.6136 4.13672 83.5986C4.14323 83.583 4.15234 83.5697 4.16406 83.5586C4.17578 83.5469 4.18945 83.5378 4.20508 83.5312C4.2207 83.5247 4.2373 83.5215 4.25488 83.5215H4.71289C4.74805 83.5215 4.78581 83.5277 4.82617 83.54C4.86654 83.5524 4.90495 83.5723 4.94141 83.5996V83.5215H5.28516C5.30924 83.5215 5.33464 83.5244 5.36133 83.5303C5.38802 83.5355 5.41439 83.5439 5.44043 83.5557C5.46712 83.5674 5.49251 83.5827 5.5166 83.6016C5.54069 83.6198 5.56185 83.6423 5.58008 83.6689C5.59831 83.695 5.61296 83.7253 5.62402 83.7598C5.63509 83.7943 5.64062 83.8333 5.64062 83.877V84.5771H5.38672V83.877C5.38672 83.8438 5.37826 83.8187 5.36133 83.8018C5.34505 83.7842 5.31966 83.7754 5.28516 83.7754H5.05664C5.0651 83.8066 5.06934 83.8405 5.06934 83.877V84.5771ZM6.81738 84.5771H6.56348V83.877C6.56348 83.8438 6.55469 83.8187 6.53711 83.8018C6.51953 83.7842 6.49349 83.7754 6.45898 83.7754H6.12891V84.5771H5.875V83.6475C5.875 83.6299 5.87826 83.6136 5.88477 83.5986C5.89128 83.583 5.90039 83.5697 5.91211 83.5586C5.92383 83.5469 5.9375 83.5378 5.95312 83.5312C5.96875 83.5247 5.98535 83.5215 6.00293 83.5215H6.46094C6.49609 83.5215 6.53385 83.5277 6.57422 83.54C6.61458 83.5524 6.65299 83.5723 6.68945 83.5996V83.5215H7.0332C7.05729 83.5215 7.08268 83.5244 7.10938 83.5303C7.13607 83.5355 7.16243 83.5439 7.18848 83.5557C7.21517 83.5674 7.24056 83.5827 7.26465 83.6016C7.28874 83.6198 7.3099 83.6423 7.32812 83.6689C7.34635 83.695 7.361 83.7253 7.37207 83.7598C7.38314 83.7943 7.38867 83.8333 7.38867 83.877V84.5771H7.13477V83.877C7.13477 83.8438 7.1263 83.8187 7.10938 83.8018C7.0931 83.7842 7.06771 83.7754 7.0332 83.7754H6.80469C6.81315 83.8066 6.81738 83.8405 6.81738 83.877V84.5771Z" fill="#2D2E2E"/>
<path d="M157.153 78.5938L153.403 99.5938C153.32 100.01 153.132 100.37 152.841 100.672C152.549 100.974 152.195 101.167 151.778 101.25C151.351 101.323 150.945 101.276 150.56 101.109C150.185 100.943 149.888 100.682 149.669 100.328L142.231 88.1094L134.778 100.328C134.601 100.63 134.356 100.865 134.044 101.031C133.742 101.198 133.414 101.281 133.06 101.281C132.57 101.281 132.138 101.125 131.763 100.812C131.388 100.5 131.159 100.094 131.075 99.5938L127.294 78.5938H131.419L134.106 93.3906L140.513 83.1719C140.69 82.8698 140.929 82.6354 141.231 82.4688C141.544 82.3021 141.877 82.2188 142.231 82.2188C142.586 82.2188 142.914 82.3021 143.216 82.4688C143.518 82.6354 143.768 82.8698 143.966 83.1719L150.341 93.3906L153.028 78.5938H157.153ZM178.122 95.2969C178.122 95.9948 178.034 96.625 177.856 97.1875C177.679 97.7396 177.445 98.2292 177.153 98.6562C176.862 99.0729 176.523 99.4323 176.138 99.7344C175.752 100.026 175.346 100.266 174.919 100.453C174.502 100.641 174.075 100.781 173.638 100.875C173.211 100.958 172.804 101 172.419 101H165.091C164.528 101 163.914 100.901 163.247 100.703C162.58 100.505 161.961 100.182 161.388 99.7344C160.825 99.276 160.351 98.6875 159.966 97.9688C159.591 97.2396 159.403 96.349 159.403 95.2969V89.7969C159.403 88.7552 159.591 87.875 159.966 87.1562C160.351 86.4271 160.825 85.8385 161.388 85.3906C161.961 84.9323 162.58 84.6042 163.247 84.4062C163.914 84.2083 164.528 84.1094 165.091 84.1094H172.419C173.461 84.1094 174.346 84.2969 175.075 84.6719C175.804 85.0469 176.393 85.5208 176.841 86.0938C177.289 86.6562 177.612 87.2708 177.81 87.9375C178.018 88.6042 178.122 89.224 178.122 89.7969V95.2969ZM174.06 89.8281C174.06 89.2656 173.919 88.849 173.638 88.5781C173.356 88.3073 172.95 88.1719 172.419 88.1719H165.122C164.58 88.1719 164.169 88.3125 163.888 88.5938C163.606 88.8646 163.466 89.2656 163.466 89.7969V95.2969C163.466 95.8281 163.606 96.2344 163.888 96.5156C164.169 96.7969 164.58 96.9375 165.122 96.9375H172.419C172.971 96.9375 173.382 96.7969 173.653 96.5156C173.924 96.2344 174.06 95.8281 174.06 95.2969V89.8281ZM196.372 88.1719H187.231C186.679 88.1719 186.263 88.3125 185.981 88.5938C185.7 88.8646 185.56 89.2656 185.56 89.7969V101H181.497V89.7969C181.497 89.099 181.586 88.474 181.763 87.9219C181.94 87.3698 182.174 86.8854 182.466 86.4688C182.768 86.0417 183.112 85.6823 183.497 85.3906C183.882 85.0885 184.284 84.8438 184.7 84.6562C185.127 84.4688 185.554 84.3333 185.981 84.25C186.419 84.1562 186.825 84.1094 187.2 84.1094H196.372V88.1719ZM218.903 101H213.044L204.856 93.0938C204.398 92.6771 204.185 92.1562 204.216 91.5312C204.237 91.2396 204.31 90.9688 204.435 90.7188C204.57 90.4583 204.752 90.2396 204.981 90.0625L212.403 84.0781H218.903L209.341 91.7812L218.903 101ZM203.185 101H199.122V76.9688H203.185V101ZM225.31 80.6406H221.247V76.9688H225.31V80.6406ZM225.31 101H221.247V84.1094H225.31V101ZM247.935 101H243.872V91.625C243.872 91.0938 243.778 90.6198 243.591 90.2031C243.414 89.776 243.169 89.4115 242.856 89.1094C242.544 88.8073 242.174 88.5781 241.747 88.4219C241.33 88.2552 240.877 88.1719 240.388 88.1719H233.278V101H229.216V86.125C229.216 85.8438 229.268 85.5833 229.372 85.3438C229.476 85.0938 229.622 84.8802 229.81 84.7031C229.997 84.5156 230.216 84.3698 230.466 84.2656C230.716 84.1615 230.981 84.1094 231.263 84.1094H240.419C240.929 84.1094 241.466 84.1667 242.028 84.2812C242.601 84.3958 243.164 84.5833 243.716 84.8438C244.278 85.0938 244.81 85.4167 245.31 85.8125C245.82 86.1979 246.268 86.6719 246.653 87.2344C247.049 87.7865 247.362 88.4271 247.591 89.1562C247.82 89.8854 247.935 90.7083 247.935 91.625V101ZM269.872 102.625C269.872 103.323 269.784 103.948 269.606 104.5C269.429 105.062 269.195 105.552 268.903 105.969C268.612 106.396 268.273 106.755 267.888 107.047C267.502 107.349 267.096 107.594 266.669 107.781C266.252 107.969 265.825 108.104 265.388 108.188C264.961 108.281 264.554 108.328 264.169 108.328H256.841V104.266H264.169C264.721 104.266 265.132 104.125 265.403 103.844C265.674 103.562 265.81 103.156 265.81 102.625V89.7969C265.81 89.2656 265.674 88.8646 265.403 88.5938C265.132 88.3125 264.721 88.1719 264.169 88.1719H256.841C256.341 88.1719 255.945 88.3281 255.653 88.6406C255.362 88.9427 255.216 89.3281 255.216 89.7969V95.2969C255.216 95.8281 255.356 96.2344 255.638 96.5156C255.919 96.7969 256.33 96.9375 256.872 96.9375H264.169V101H256.841C256.455 101 256.049 100.958 255.622 100.875C255.195 100.781 254.768 100.641 254.341 100.453C253.924 100.266 253.523 100.026 253.138 99.7344C252.752 99.4323 252.414 99.0729 252.122 98.6562C251.83 98.2292 251.596 97.7396 251.419 97.1875C251.242 96.625 251.153 95.9948 251.153 95.2969V89.7969C251.153 89.4115 251.195 89.0052 251.278 88.5781C251.372 88.151 251.513 87.7292 251.7 87.3125C251.888 86.8854 252.127 86.4792 252.419 86.0938C252.721 85.7083 253.08 85.3698 253.497 85.0781C253.924 84.7865 254.414 84.5521 254.966 84.375C255.518 84.1979 256.143 84.1094 256.841 84.1094H264.169C264.554 84.1094 264.961 84.1562 265.388 84.25C265.825 84.3333 266.252 84.4688 266.669 84.6562C267.096 84.8438 267.502 85.0885 267.888 85.3906C268.273 85.6823 268.612 86.0417 268.903 86.4688C269.195 86.8854 269.429 87.3698 269.606 87.9219C269.784 88.474 269.872 89.099 269.872 89.7969V102.625ZM289.919 95.2969C289.919 95.9948 289.83 96.625 289.653 97.1875C289.476 97.7396 289.242 98.2292 288.95 98.6562C288.659 99.0729 288.32 99.4323 287.935 99.7344C287.549 100.026 287.143 100.266 286.716 100.453C286.299 100.641 285.872 100.781 285.435 100.875C285.007 100.958 284.601 101 284.216 101H273.216V96.9375H284.185C284.737 96.9375 285.153 96.7969 285.435 96.5156C285.716 96.2344 285.856 95.8281 285.856 95.2969C285.804 94.2135 285.257 93.6719 284.216 93.6719H277.919C277.023 93.6719 276.263 93.5156 275.638 93.2031C275.013 92.8906 274.502 92.5 274.106 92.0312C273.721 91.5625 273.44 91.0573 273.263 90.5156C273.096 89.974 273.013 89.4688 273.013 89C273.013 88.0938 273.174 87.3333 273.497 86.7188C273.82 86.0938 274.226 85.5885 274.716 85.2031C275.205 84.8177 275.737 84.5417 276.31 84.375C276.882 84.1979 277.419 84.1094 277.919 84.1094H287.903V88.1719H277.95C277.742 88.1719 277.575 88.1979 277.45 88.25C277.336 88.2917 277.247 88.3542 277.185 88.4375C277.132 88.5104 277.101 88.5938 277.091 88.6875C277.08 88.7708 277.075 88.8542 277.075 88.9375C277.086 89.1042 277.117 89.2344 277.169 89.3281C277.221 89.4219 277.284 89.4896 277.356 89.5312C277.44 89.5729 277.528 89.599 277.622 89.6094C277.726 89.6094 277.825 89.6094 277.919 89.6094H284.216C285.257 89.6094 286.143 89.7969 286.872 90.1719C287.601 90.5469 288.19 91.0208 288.638 91.5938C289.086 92.1562 289.409 92.7708 289.606 93.4375C289.815 94.1042 289.919 94.724 289.919 95.2969Z" fill="#2D2E2E"/>
<defs>
<clipPath id="clip0_2416_550">
<rect width="105" height="105" fill="white" transform="translate(13 32)"/>
</clipPath>
</defs>
</svg>
