<svg width="124" height="117" viewBox="0 0 124 117" fill="none" xmlns="http://www.w3.org/2000/svg">
<g clip-path="url(#clip0_2417_600)">
<path fill-rule="evenodd" clip-rule="evenodd" d="M120.986 19.0436C120.986 17.2161 120.318 15.4516 119.108 14.0818C117.898 12.7119 116.23 11.8309 114.416 11.6043L24.4163 0.355486C23.3606 0.223577 22.289 0.31775 21.2725 0.631749C20.256 0.945748 19.318 1.47239 18.5207 2.1767C17.7234 2.88101 17.0851 3.74686 16.6481 4.71677C16.2112 5.68668 15.9856 6.73845 15.9863 7.80222V97.793C15.9856 98.8568 16.2112 99.9085 16.6481 100.878C17.0851 101.848 17.7234 102.714 18.5207 103.419C19.318 104.123 20.256 104.649 21.2725 104.963C22.289 105.277 23.3606 105.372 24.4163 105.24L114.416 93.9909C116.23 93.7643 117.898 92.8833 119.108 91.5134C120.318 90.1436 120.986 88.3792 120.986 86.5516V19.0586V19.0436ZM113.486 56.5397V86.5366L75.9863 91.2237V56.5772H113.486V56.5397ZM75.9863 49.0405H113.486V19.0436L75.9863 14.3565V49.003V49.0405ZM68.4863 56.5397V92.1611L23.4863 97.7855V56.5397H68.4863ZM23.4863 49.0405H68.4863V13.4191L23.4863 7.79472V49.0405Z" fill="#2D2E2E"/>
<path d="M24.9834 96.3345V91.3101" stroke="#2D2E2E" stroke-width="0.625" stroke-linecap="round"/>
<path d="M66.9863 91.3757V86.3514" stroke="#2D2E2E" stroke-width="0.625" stroke-linecap="round"/>
<path d="M43.2366 91.535L41.9601 91.692L41.9028 91.2258C41.8998 91.2019 41.8993 91.1763 41.9012 91.1492C41.9037 91.1214 41.9091 91.0935 41.9175 91.0656C41.9259 91.0376 41.9376 91.0106 41.9528 90.9845C41.9686 90.9583 41.9883 90.9345 42.0119 90.9132C42.0361 90.8912 42.0646 90.8726 42.0975 90.8575C42.1304 90.8423 42.1685 90.832 42.2118 90.8267L42.7798 90.7568C42.8141 90.7526 42.8382 90.7411 42.8523 90.7223C42.867 90.7028 42.8723 90.6766 42.8682 90.6436L42.8545 90.5322C42.8503 90.4979 42.8387 90.4731 42.8198 90.4577C42.8008 90.4423 42.7752 90.4366 42.7429 90.4406L41.9336 90.5401L41.9026 90.2881L42.7119 90.1886C42.7546 90.1834 42.7937 90.1841 42.8293 90.1909C42.8649 90.1977 42.8968 90.2088 42.9249 90.2244C42.9536 90.2392 42.9788 90.2575 43.0005 90.2791C43.0222 90.3007 43.0405 90.324 43.0554 90.3491C43.0708 90.3734 43.0828 90.3988 43.0913 90.4253C43.1004 90.4511 43.1063 90.4756 43.1092 90.4989L43.1231 90.6123C43.1312 90.6776 43.126 90.7343 43.1077 90.7824C43.0899 90.8299 43.065 90.87 43.0329 90.9028C43.0008 90.935 42.9649 90.9601 42.9251 90.9781C42.8859 90.9953 42.8485 91.0062 42.813 91.0105L42.2431 91.0806C42.2224 91.0832 42.2063 91.0881 42.1947 91.0954C42.1831 91.1027 42.1744 91.1117 42.1685 91.1223C42.1632 91.1327 42.1597 91.1443 42.158 91.157C42.1563 91.1697 42.1552 91.1823 42.1548 91.1948L42.1811 91.409L43.2056 91.283L43.2366 91.535ZM45.0086 90.7268C45.0156 90.7836 45.0148 90.8385 45.0062 90.8914C44.9982 90.9435 44.9836 90.9929 44.9625 91.0394C44.9413 91.086 44.9147 91.1286 44.8827 91.1673C44.8508 91.206 44.8146 91.2403 44.7744 91.2702C44.7347 91.2993 44.6914 91.3234 44.6445 91.3422C44.5976 91.3611 44.549 91.3737 44.4986 91.3799L44.044 91.4357C43.993 91.442 43.9424 91.4417 43.8924 91.4347C43.8423 91.4278 43.7942 91.415 43.7479 91.3964C43.7023 91.3771 43.6592 91.3525 43.6188 91.3227C43.5784 91.2929 43.5423 91.258 43.5105 91.218C43.4793 91.1779 43.4532 91.1335 43.4322 91.0849C43.4117 91.0356 43.3979 90.9826 43.3909 90.9257L43.363 90.6989C43.3526 90.6136 43.3588 90.5335 43.3817 90.4585C43.4053 90.3834 43.4407 90.3171 43.4881 90.2595C43.5354 90.2012 43.5921 90.1535 43.6584 90.1165C43.7253 90.0788 43.7968 90.0552 43.8731 90.0458L44.3277 89.9899C44.3781 89.9837 44.4283 89.9841 44.4784 89.9911C44.5284 89.998 44.5763 90.0112 44.6219 90.0305C44.6682 90.0491 44.7115 90.0733 44.7519 90.1031C44.7923 90.1329 44.8284 90.1678 44.8602 90.2078C44.892 90.2479 44.9182 90.2925 44.9387 90.3418C44.9597 90.3904 44.9738 90.4431 44.9807 90.5L45.0086 90.7268ZM44.7268 90.5312C44.7207 90.4814 44.7061 90.4373 44.683 90.3988C44.6599 90.3604 44.6314 90.3284 44.5974 90.3031C44.5641 90.2777 44.5268 90.2596 44.4855 90.249C44.4441 90.2383 44.4019 90.236 44.3587 90.2419L43.9041 90.2978C43.862 90.3024 43.8219 90.3148 43.7837 90.3353C43.7461 90.355 43.7136 90.3813 43.6862 90.4142C43.6593 90.4463 43.639 90.4842 43.6254 90.5279C43.6123 90.5708 43.6089 90.6175 43.6151 90.6679L43.6429 90.8947C43.6491 90.9451 43.6638 90.9896 43.6869 91.028C43.71 91.0665 43.7385 91.0984 43.7725 91.1238C43.8063 91.1485 43.8439 91.1662 43.8852 91.1768C43.9272 91.1874 43.9698 91.1897 44.013 91.1837L44.4676 91.1278C44.5174 91.1217 44.5613 91.1081 44.5993 91.087C44.638 91.0652 44.6697 91.0381 44.6946 91.0055C44.7195 90.9729 44.7372 90.9356 44.7478 90.8937C44.7583 90.851 44.7606 90.8058 44.7547 90.758L44.7268 90.5312ZM44.5946 90.3605C44.6061 90.3735 44.6144 90.3883 44.6197 90.4047C44.6249 90.4204 44.6269 90.4366 44.6257 90.4531C44.6244 90.469 44.6197 90.4847 44.6118 90.5001C44.6044 90.5148 44.5939 90.5279 44.5802 90.5394L43.9557 91.0776C43.9457 91.0874 43.9351 91.0946 43.9239 91.0993C43.9127 91.1039 43.9009 91.107 43.8886 91.1085C43.868 91.1111 43.8477 91.1086 43.8277 91.1012C43.8078 91.0939 43.7909 91.0818 43.7771 91.0652C43.7656 91.0521 43.7573 91.0378 43.7521 91.022C43.7468 91.0056 43.7445 90.9895 43.7451 90.9737C43.7464 90.9571 43.7507 90.9415 43.7581 90.9268C43.7654 90.9115 43.7759 90.898 43.7895 90.8865L44.416 90.348C44.429 90.3366 44.4434 90.3283 44.4592 90.3231C44.4756 90.3178 44.4917 90.3158 44.5076 90.3171C44.5242 90.3183 44.5398 90.3227 44.5545 90.33C44.5698 90.3373 44.5832 90.3475 44.5946 90.3605ZM46.8888 91.0859L46.6368 91.1169L46.5513 90.422C46.5473 90.389 46.5355 90.3652 46.516 90.3506C46.4964 90.3353 46.4695 90.3297 46.4352 90.3339L46.1076 90.3742L46.2055 91.17L45.9534 91.201L45.84 90.2782C45.8378 90.2608 45.8391 90.2442 45.8437 90.2286C45.8483 90.2123 45.8557 90.1979 45.866 90.1855C45.8762 90.1724 45.8886 90.1617 45.9033 90.1533C45.9181 90.145 45.9341 90.1397 45.9516 90.1376L46.4062 90.0817C46.4411 90.0774 46.4793 90.0789 46.5209 90.0863C46.5624 90.0936 46.603 90.1086 46.6425 90.1313L46.633 90.0538L46.9742 90.0118C46.9981 90.0089 47.0236 90.0087 47.0508 90.0113C47.078 90.0132 47.1052 90.0184 47.1324 90.0268C47.1604 90.0352 47.1874 90.0473 47.2136 90.0631C47.2398 90.0782 47.2635 90.0979 47.2849 90.1222C47.3061 90.1458 47.3244 90.1741 47.3396 90.207C47.3548 90.2399 47.365 90.278 47.3704 90.3213L47.4558 91.0162L47.2038 91.0472L47.1183 90.3523C47.1143 90.3193 47.1028 90.2955 47.084 90.2807C47.0657 90.2653 47.0394 90.2596 47.0051 90.2638L46.7783 90.2917C46.7906 90.3217 46.7989 90.3548 46.8033 90.391L46.8888 91.0859ZM48.6238 90.8726L48.3718 90.9036L48.2863 90.2086C48.2823 90.1757 48.2705 90.1519 48.251 90.1372C48.2314 90.1219 48.2044 90.1164 48.1702 90.1206L47.8426 90.1609L47.9404 90.9566L47.6884 90.9876L47.575 90.0649C47.5728 90.0474 47.5741 90.0309 47.5787 90.0152C47.5833 89.9989 47.5907 89.9846 47.601 89.9722C47.6112 89.9591 47.6236 89.9484 47.6383 89.94C47.653 89.9316 47.6691 89.9264 47.6866 89.9242L48.1411 89.8683C48.176 89.8641 48.2143 89.8656 48.2558 89.8729C48.2974 89.8803 48.338 89.8953 48.3775 89.918L48.368 89.8405L48.7091 89.7985C48.733 89.7956 48.7586 89.7954 48.7858 89.7979C48.8129 89.7998 48.8401 89.805 48.8674 89.8135C48.8953 89.8218 48.9224 89.8339 48.9486 89.8497C48.9748 89.8649 48.9985 89.8846 49.0199 89.9089C49.0411 89.9325 49.0594 89.9607 49.0746 89.9936C49.0897 90.0265 49.1 90.0646 49.1053 90.1079L49.1908 90.8029L48.9388 90.8339L48.8533 90.1389C48.8493 90.106 48.8378 90.0821 48.8189 90.0674C48.8006 90.0519 48.7744 90.0463 48.7401 90.0505L48.5133 90.0784C48.5255 90.1084 48.5339 90.1415 48.5383 90.1777L48.6238 90.8726Z" fill="#2D2E2E"/>
<path d="M39.3037 91.9846L25.0586 93.7366C24.8874 93.7575 24.732 93.6353 24.7109 93.4641C24.69 93.2929 24.8113 93.1376 24.9824 93.1165L39.3037 91.3547V91.9846ZM66.4346 88.0188C66.6059 87.9978 66.7621 88.12 66.7832 88.2913C66.8041 88.4625 66.682 88.6178 66.5107 88.6389L51.7139 90.4583V89.8284L66.4346 88.0188Z" fill="#2D2E2E"/>
</g>
<path d="M15.9863 116.298V111.298" stroke="#2D2E2E" stroke-width="0.625" stroke-linecap="round"/>
<path d="M120.986 103.299V98.2986" stroke="#2D2E2E" stroke-width="0.625" stroke-linecap="round"/>
<path d="M70.7317 107.106L69.4552 107.263L69.3979 106.796C69.3949 106.772 69.3944 106.747 69.3963 106.72C69.3988 106.692 69.4042 106.664 69.4126 106.636C69.421 106.608 69.4327 106.581 69.4479 106.555C69.4637 106.529 69.4834 106.505 69.507 106.484C69.5312 106.462 69.5598 106.443 69.5927 106.428C69.6256 106.413 69.6637 106.403 69.7069 106.397L70.2749 106.327C70.3092 106.323 70.3334 106.312 70.3474 106.293C70.3621 106.273 70.3674 106.247 70.3633 106.214L70.3496 106.103C70.3454 106.068 70.3338 106.044 70.3149 106.028C70.296 106.013 70.2703 106.007 70.238 106.011L69.4287 106.111L69.3977 105.859L70.207 105.759C70.2497 105.754 70.2888 105.755 70.3244 105.761C70.36 105.768 70.3919 105.779 70.42 105.795C70.4487 105.81 70.4739 105.828 70.4956 105.85C70.5173 105.871 70.5356 105.895 70.5505 105.92C70.5659 105.944 70.5779 105.969 70.5864 105.996C70.5955 106.022 70.6015 106.046 70.6043 106.069L70.6183 106.183C70.6263 106.248 70.6211 106.305 70.6028 106.353C70.585 106.4 70.5601 106.441 70.528 106.473C70.4959 106.506 70.46 106.531 70.4202 106.549C70.381 106.566 70.3436 106.577 70.3081 106.581L69.7382 106.651C69.7175 106.654 69.7014 106.659 69.6898 106.666C69.6783 106.673 69.6695 106.682 69.6636 106.693C69.6583 106.703 69.6548 106.715 69.6531 106.728C69.6514 106.74 69.6503 106.753 69.6499 106.765L69.6762 106.98L70.7007 106.854L70.7317 107.106ZM72.5037 106.297C72.5107 106.354 72.5099 106.409 72.5014 106.462C72.4933 106.514 72.4787 106.563 72.4576 106.61C72.4364 106.657 72.4098 106.699 72.3779 106.738C72.3459 106.777 72.3098 106.811 72.2695 106.841C72.2298 106.87 72.1865 106.894 72.1396 106.913C72.0927 106.932 72.0441 106.944 71.9937 106.95L71.5391 107.006C71.4881 107.013 71.4375 107.012 71.3875 107.005C71.3374 106.998 71.2893 106.986 71.243 106.967C71.1974 106.948 71.1543 106.923 71.1139 106.893C71.0735 106.863 71.0374 106.829 71.0056 106.789C70.9745 106.748 70.9483 106.704 70.9273 106.656C70.9068 106.606 70.893 106.553 70.8861 106.496L70.8582 106.269C70.8477 106.184 70.8539 106.104 70.8768 106.029C70.9004 105.954 70.9358 105.888 70.9832 105.83C71.0305 105.772 71.0873 105.724 71.1535 105.687C71.2204 105.649 71.292 105.626 71.3682 105.616L71.8228 105.56C71.8732 105.554 71.9234 105.555 71.9735 105.562C72.0235 105.569 72.0714 105.582 72.1171 105.601C72.1633 105.62 72.2066 105.644 72.247 105.674C72.2874 105.703 72.3235 105.738 72.3553 105.778C72.3871 105.818 72.4133 105.863 72.4338 105.912C72.4548 105.961 72.4689 106.014 72.4759 106.071L72.5037 106.297ZM72.2219 106.102C72.2158 106.052 72.2012 106.008 72.1781 105.969C72.155 105.931 72.1265 105.899 72.0925 105.874C72.0592 105.848 72.0219 105.83 71.9806 105.82C71.9393 105.809 71.897 105.807 71.8538 105.812L71.3992 105.868C71.3571 105.873 71.317 105.885 71.2788 105.906C71.2413 105.926 71.2087 105.952 71.1813 105.985C71.1544 106.017 71.1342 106.055 71.1205 106.098C71.1074 106.141 71.104 106.188 71.1102 106.238L71.1381 106.465C71.1443 106.516 71.1589 106.56 71.182 106.599C71.2051 106.637 71.2336 106.669 71.2676 106.694C71.3014 106.719 71.339 106.737 71.3804 106.747C71.4223 106.758 71.4649 106.76 71.5081 106.754L71.9627 106.698C72.0125 106.692 72.0564 106.679 72.0945 106.658C72.1331 106.636 72.1649 106.609 72.1897 106.576C72.2146 106.543 72.2323 106.506 72.2429 106.464C72.2534 106.422 72.2557 106.376 72.2498 106.329L72.2219 106.102ZM72.0897 105.931C72.1012 105.944 72.1096 105.959 72.1148 105.975C72.1201 105.991 72.1221 106.007 72.1208 106.024C72.1195 106.04 72.1148 106.055 72.1069 106.071C72.0995 106.085 72.089 106.098 72.0753 106.11L71.4508 106.648C71.4409 106.658 71.4303 106.665 71.419 106.67C71.4078 106.674 71.396 106.678 71.3838 106.679C71.3631 106.682 71.3428 106.679 71.3228 106.672C71.3029 106.664 71.286 106.652 71.2722 106.636C71.2607 106.623 71.2524 106.608 71.2472 106.593C71.2419 106.576 71.2396 106.56 71.2403 106.544C71.2415 106.528 71.2458 106.512 71.2532 106.497C71.2605 106.482 71.271 106.469 71.2846 106.457L71.9111 105.919C71.9241 105.907 71.9385 105.899 71.9543 105.894C71.9707 105.888 71.9868 105.886 72.0027 105.888C72.0193 105.889 72.0349 105.893 72.0496 105.901C72.0649 105.908 72.0783 105.918 72.0897 105.931ZM74.3839 106.657L74.1319 106.687L74.0464 105.993C74.0424 105.96 74.0306 105.936 74.0111 105.921C73.9915 105.906 73.9646 105.9 73.9303 105.904L73.6027 105.945L73.7006 106.741L73.4486 106.772L73.3351 105.849C73.333 105.831 73.3342 105.815 73.3388 105.799C73.3434 105.783 73.3508 105.768 73.3611 105.756C73.3713 105.743 73.3837 105.732 73.3985 105.724C73.4132 105.716 73.4293 105.71 73.4467 105.708L73.9013 105.652C73.9362 105.648 73.9744 105.649 74.016 105.657C74.0576 105.664 74.0981 105.679 74.1376 105.702L74.1281 105.624L74.4693 105.582C74.4932 105.579 74.5187 105.579 74.5459 105.582C74.5731 105.584 74.6003 105.589 74.6276 105.597C74.6555 105.606 74.6825 105.618 74.7088 105.634C74.7349 105.649 74.7586 105.668 74.78 105.693C74.8013 105.716 74.8195 105.745 74.8347 105.778C74.8499 105.81 74.8601 105.849 74.8655 105.892L74.9509 106.587L74.6989 106.618L74.6135 105.923C74.6094 105.89 74.5979 105.866 74.5791 105.851C74.5608 105.836 74.5345 105.83 74.5003 105.834L74.2735 105.862C74.2857 105.892 74.294 105.925 74.2984 105.962L74.3839 106.657ZM76.1189 106.443L75.8669 106.474L75.7814 105.779C75.7774 105.746 75.7656 105.722 75.7461 105.708C75.7265 105.692 75.6996 105.687 75.6653 105.691L75.3377 105.731L75.4356 106.527L75.1835 106.558L75.0701 105.635C75.0679 105.618 75.0692 105.601 75.0738 105.586C75.0784 105.569 75.0858 105.555 75.0961 105.543C75.1063 105.53 75.1187 105.519 75.1334 105.511C75.1482 105.502 75.1642 105.497 75.1817 105.495L75.6363 105.439C75.6712 105.435 75.7094 105.436 75.751 105.443C75.7925 105.451 75.8331 105.466 75.8726 105.489L75.8631 105.411L76.2043 105.369C76.2282 105.366 76.2537 105.366 76.2809 105.368C76.3081 105.37 76.3353 105.376 76.3625 105.384C76.3905 105.392 76.4175 105.404 76.4437 105.42C76.4699 105.435 76.4936 105.455 76.515 105.479C76.5362 105.503 76.5545 105.531 76.5697 105.564C76.5849 105.597 76.5951 105.635 76.6004 105.678L76.6859 106.373L76.4339 106.404L76.3484 105.709C76.3444 105.677 76.3329 105.653 76.3141 105.638C76.2958 105.622 76.2695 105.617 76.2352 105.621L76.0084 105.649C76.0206 105.679 76.029 105.712 76.0334 105.748L76.1189 106.443Z" fill="#2D2E2E"/>
<path d="M65.0537 107.643L16.5244 113.611C16.3533 113.631 16.1978 113.509 16.1768 113.338C16.156 113.167 16.2772 113.012 16.4482 112.99L65.0537 107.013V107.643ZM120.664 100.176C120.835 100.155 120.991 100.277 121.012 100.448C121.033 100.619 120.911 100.775 120.74 100.796L82.0537 105.553V104.923L120.664 100.176Z" fill="#2D2E2E"/>
<path d="M3.7793 0.297607L8.70479 0.297607" stroke="#2D2E2E" stroke-width="0.625" stroke-linecap="round"/>
<path d="M3.89844 105.16H8.45984" stroke="#2D2E2E" stroke-width="0.625" stroke-linecap="round"/>
<path d="M6.17969 0.3125L6.26536 40.6367" stroke="#2D2E2E" stroke-width="0.625" stroke-linecap="round"/>
<path d="M6.17969 64.8367L6.26536 105.161" stroke="#2D2E2E" stroke-width="0.625" stroke-linecap="round"/>
<path d="M4.37598 52.8748H3.08984V52.405C3.08984 52.3809 3.09245 52.3556 3.09766 52.3289C3.10352 52.3015 3.1123 52.2745 3.12402 52.2478C3.13574 52.2211 3.15072 52.1957 3.16895 52.1716C3.18783 52.1475 3.21029 52.1264 3.23633 52.1082C3.26302 52.0893 3.29362 52.0743 3.32812 52.0632C3.36263 52.0522 3.40169 52.0466 3.44531 52.0466H4.01758C4.05208 52.0466 4.07747 52.0382 4.09375 52.0212C4.11068 52.0037 4.11914 51.9783 4.11914 51.9451V51.8328C4.11914 51.7983 4.11068 51.7722 4.09375 51.7546C4.07682 51.7371 4.05208 51.7283 4.01953 51.7283H3.2041V51.4744H4.01953C4.0625 51.4744 4.10124 51.4799 4.13574 51.491C4.17025 51.502 4.20052 51.517 4.22656 51.5359C4.25326 51.5541 4.27604 51.5753 4.29492 51.5994C4.3138 51.6235 4.3291 51.6488 4.34082 51.6755C4.35319 51.7016 4.36198 51.7283 4.36719 51.7556C4.37305 51.7823 4.37598 51.8074 4.37598 51.8308V51.9451C4.37598 52.0108 4.36393 52.0665 4.33984 52.1121C4.31641 52.157 4.28678 52.1938 4.25098 52.2224C4.21517 52.2504 4.17643 52.2709 4.13477 52.2839C4.09375 52.2963 4.05534 52.3025 4.01953 52.3025H3.44531C3.42448 52.3025 3.40788 52.3054 3.39551 52.3113C3.38314 52.3171 3.37337 52.325 3.36621 52.3347C3.3597 52.3445 3.35482 52.3556 3.35156 52.3679C3.34831 52.3803 3.3457 52.3927 3.34375 52.405V52.6208H4.37598V52.8748ZM6.2334 52.2888C6.2334 52.3461 6.22591 52.4005 6.21094 52.4519C6.19661 52.5027 6.17611 52.5499 6.14941 52.5935C6.12272 52.6371 6.09115 52.6762 6.05469 52.7107C6.01823 52.7452 5.97819 52.7748 5.93457 52.7996C5.8916 52.8236 5.8457 52.8422 5.79688 52.8552C5.74805 52.8682 5.69824 52.8748 5.64746 52.8748H5.18945C5.13802 52.8748 5.08789 52.8682 5.03906 52.8552C4.99023 52.8422 4.94401 52.8236 4.90039 52.7996C4.85742 52.7748 4.81771 52.7452 4.78125 52.7107C4.74479 52.6762 4.71322 52.6371 4.68652 52.5935C4.66048 52.5499 4.63997 52.5027 4.625 52.4519C4.61068 52.4005 4.60352 52.3461 4.60352 52.2888V52.0603C4.60352 51.9744 4.61947 51.8956 4.65137 51.824C4.68392 51.7524 4.72721 51.6908 4.78125 51.6394C4.83529 51.5873 4.89746 51.547 4.96777 51.5183C5.03874 51.489 5.11263 51.4744 5.18945 51.4744H5.64746C5.69824 51.4744 5.74805 51.4809 5.79688 51.4939C5.8457 51.5069 5.8916 51.5258 5.93457 51.5505C5.97819 51.5746 6.01823 51.6039 6.05469 51.6384C6.09115 51.6729 6.12272 51.712 6.14941 51.7556C6.17611 51.7992 6.19661 51.8468 6.21094 51.8982C6.22591 51.949 6.2334 52.003 6.2334 52.0603V52.2888ZM5.97754 52.0603C5.97754 52.0102 5.96842 51.9646 5.9502 51.9236C5.93197 51.8826 5.90755 51.8474 5.87695 51.8181C5.84701 51.7888 5.81217 51.7664 5.77246 51.7507C5.73275 51.7351 5.69108 51.7276 5.64746 51.7283H5.18945C5.14714 51.7276 5.10579 51.7351 5.06543 51.7507C5.02572 51.7657 4.99023 51.7878 4.95898 51.8171C4.92839 51.8458 4.90365 51.8809 4.88477 51.9226C4.86654 51.9636 4.85742 52.0095 4.85742 52.0603V52.2888C4.85742 52.3396 4.86654 52.3855 4.88477 52.4265C4.90299 52.4675 4.92741 52.5027 4.95801 52.532C4.98861 52.5606 5.02376 52.5828 5.06348 52.5984C5.10384 52.614 5.14583 52.6215 5.18945 52.6208H5.64746C5.69759 52.6208 5.74284 52.6127 5.7832 52.5964C5.82422 52.5795 5.85905 52.5564 5.8877 52.5271C5.91634 52.4978 5.93848 52.463 5.9541 52.4226C5.96973 52.3816 5.97754 52.337 5.97754 52.2888V52.0603ZM5.86719 51.8748C5.87695 51.8891 5.88346 51.9047 5.88672 51.9216C5.88997 51.9379 5.88997 51.9542 5.88672 51.9705C5.88346 51.9861 5.87695 52.0011 5.86719 52.0154C5.85807 52.0291 5.84603 52.0408 5.83105 52.0505L5.14551 52.5085C5.13444 52.517 5.12305 52.5229 5.11133 52.5261C5.09961 52.5294 5.08757 52.531 5.0752 52.531C5.05436 52.531 5.03451 52.5261 5.01562 52.5164C4.99674 52.5066 4.98145 52.4926 4.96973 52.4744C4.95996 52.46 4.95345 52.4447 4.9502 52.4285C4.94694 52.4115 4.94661 52.3953 4.94922 52.3796C4.95247 52.3634 4.95866 52.3484 4.96777 52.3347C4.97689 52.3204 4.98893 52.3083 5.00391 52.2986L5.69141 51.8406C5.70573 51.8308 5.72103 51.8243 5.7373 51.821C5.75423 51.8178 5.77051 51.8178 5.78613 51.821C5.80241 51.8243 5.81738 51.8305 5.83105 51.8396C5.84538 51.8487 5.85742 51.8604 5.86719 51.8748ZM8.05566 52.8748H7.80176V52.1746C7.80176 52.1414 7.79297 52.1163 7.77539 52.0994C7.75781 52.0818 7.73177 52.073 7.69727 52.073H7.36719V52.8748H7.11328V51.9451C7.11328 51.9275 7.11654 51.9112 7.12305 51.8962C7.12956 51.8806 7.13867 51.8673 7.15039 51.8562C7.16211 51.8445 7.17578 51.8354 7.19141 51.8289C7.20703 51.8223 7.22363 51.8191 7.24121 51.8191H7.69922C7.73438 51.8191 7.77214 51.8253 7.8125 51.8376C7.85286 51.85 7.89128 51.8699 7.92773 51.8972V51.8191H8.27148C8.29557 51.8191 8.32096 51.822 8.34766 51.8279C8.37435 51.8331 8.40072 51.8416 8.42676 51.8533C8.45345 51.865 8.47884 51.8803 8.50293 51.8992C8.52702 51.9174 8.54818 51.9399 8.56641 51.9666C8.58464 51.9926 8.59928 52.0229 8.61035 52.0574C8.62142 52.0919 8.62695 52.1309 8.62695 52.1746V52.8748H8.37305V52.1746C8.37305 52.1414 8.36458 52.1163 8.34766 52.0994C8.33138 52.0818 8.30599 52.073 8.27148 52.073H8.04297C8.05143 52.1042 8.05566 52.1381 8.05566 52.1746V52.8748ZM9.80371 52.8748H9.5498V52.1746C9.5498 52.1414 9.54102 52.1163 9.52344 52.0994C9.50586 52.0818 9.47982 52.073 9.44531 52.073H9.11523V52.8748H8.86133V51.9451C8.86133 51.9275 8.86458 51.9112 8.87109 51.8962C8.8776 51.8806 8.88672 51.8673 8.89844 51.8562C8.91016 51.8445 8.92383 51.8354 8.93945 51.8289C8.95508 51.8223 8.97168 51.8191 8.98926 51.8191H9.44727C9.48242 51.8191 9.52018 51.8253 9.56055 51.8376C9.60091 51.85 9.63932 51.8699 9.67578 51.8972V51.8191H10.0195C10.0436 51.8191 10.069 51.822 10.0957 51.8279C10.1224 51.8331 10.1488 51.8416 10.1748 51.8533C10.2015 51.865 10.2269 51.8803 10.251 51.8992C10.2751 51.9174 10.2962 51.9399 10.3145 51.9666C10.3327 51.9926 10.3473 52.0229 10.3584 52.0574C10.3695 52.0919 10.375 52.1309 10.375 52.1746V52.8748H10.1211V52.1746C10.1211 52.1414 10.1126 52.1163 10.0957 52.0994C10.0794 52.0818 10.054 52.073 10.0195 52.073H9.79102C9.79948 52.1042 9.80371 52.1381 9.80371 52.1746V52.8748Z" fill="#2D2E2E"/>
<defs>
<clipPath id="clip0_2417_600">
<rect width="105" height="105" fill="white" transform="translate(15.9863 0.297607)"/>
</clipPath>
</defs>
</svg>
