<svg width="155" height="48" viewBox="0 0 155 48" fill="none" xmlns="http://www.w3.org/2000/svg">
<path d="M29.3359 13.9941L25.8203 33.6816C25.7422 34.0723 25.5664 34.4092 25.293 34.6924C25.0195 34.9756 24.6875 35.1562 24.2969 35.2344C23.8965 35.3027 23.5156 35.2588 23.1543 35.1025C22.8027 34.9463 22.5244 34.7021 22.3193 34.3701L15.3467 22.915L8.35938 34.3701C8.19336 34.6533 7.96387 34.873 7.6709 35.0293C7.3877 35.1855 7.08008 35.2637 6.74805 35.2637C6.28906 35.2637 5.88379 35.1172 5.53223 34.8242C5.18066 34.5312 4.96582 34.1504 4.8877 33.6816L1.34277 13.9941H5.20996L7.72949 27.8662L13.7354 18.2861C13.9014 18.0029 14.126 17.7832 14.4092 17.627C14.7021 17.4707 15.0146 17.3926 15.3467 17.3926C15.6787 17.3926 15.9863 17.4707 16.2695 17.627C16.5527 17.7832 16.7871 18.0029 16.9727 18.2861L22.9492 27.8662L25.4688 13.9941H29.3359ZM48.9941 29.6533C48.9941 30.3076 48.9111 30.8984 48.7451 31.4258C48.5791 31.9434 48.3594 32.4023 48.0859 32.8027C47.8125 33.1934 47.4951 33.5303 47.1338 33.8135C46.7725 34.0869 46.3916 34.3115 45.9912 34.4873C45.6006 34.6631 45.2002 34.7949 44.79 34.8828C44.3896 34.9609 44.0088 35 43.6475 35H36.7773C36.25 35 35.6738 34.9072 35.0488 34.7217C34.4238 34.5361 33.8428 34.2334 33.3057 33.8135C32.7783 33.3838 32.334 32.832 31.9727 32.1582C31.6211 31.4746 31.4453 30.6396 31.4453 29.6533V24.4971C31.4453 23.5205 31.6211 22.6953 31.9727 22.0215C32.334 21.3379 32.7783 20.7861 33.3057 20.3662C33.8428 19.9365 34.4238 19.6289 35.0488 19.4434C35.6738 19.2578 36.25 19.165 36.7773 19.165H43.6475C44.624 19.165 45.4541 19.3408 46.1377 19.6924C46.8213 20.0439 47.373 20.4883 47.793 21.0254C48.2129 21.5527 48.5156 22.1289 48.7012 22.7539C48.8965 23.3789 48.9941 23.96 48.9941 24.4971V29.6533ZM45.1855 24.5264C45.1855 23.999 45.0537 23.6084 44.79 23.3545C44.5264 23.1006 44.1455 22.9736 43.6475 22.9736H36.8066C36.2988 22.9736 35.9131 23.1055 35.6494 23.3691C35.3857 23.623 35.2539 23.999 35.2539 24.4971V29.6533C35.2539 30.1514 35.3857 30.5322 35.6494 30.7959C35.9131 31.0596 36.2988 31.1914 36.8066 31.1914H43.6475C44.165 31.1914 44.5508 31.0596 44.8047 30.7959C45.0586 30.5322 45.1855 30.1514 45.1855 29.6533V24.5264ZM66.1035 22.9736H57.5342C57.0166 22.9736 56.626 23.1055 56.3623 23.3691C56.0986 23.623 55.9668 23.999 55.9668 24.4971V35H52.1582V24.4971C52.1582 23.8428 52.2412 23.2568 52.4072 22.7393C52.5732 22.2217 52.793 21.7676 53.0664 21.377C53.3496 20.9766 53.6719 20.6396 54.0332 20.3662C54.3945 20.083 54.7705 19.8535 55.1611 19.6777C55.5615 19.502 55.9619 19.375 56.3623 19.2969C56.7725 19.209 57.1533 19.165 57.5049 19.165H66.1035V22.9736ZM87.2266 35H81.7334L74.0576 27.5879C73.6279 27.1973 73.4277 26.709 73.457 26.123C73.4766 25.8496 73.5449 25.5957 73.6621 25.3613C73.7891 25.1172 73.96 24.9121 74.1748 24.7461L81.1328 19.1357H87.2266L78.2617 26.3574L87.2266 35ZM72.4902 35H68.6816V12.4707H72.4902V35ZM93.2324 15.9131H89.4238V12.4707H93.2324V15.9131ZM93.2324 35H89.4238V19.165H93.2324V35ZM114.443 35H110.635V26.2109C110.635 25.7129 110.547 25.2686 110.371 24.8779C110.205 24.4775 109.976 24.1357 109.683 23.8525C109.39 23.5693 109.043 23.3545 108.643 23.208C108.252 23.0518 107.827 22.9736 107.368 22.9736H100.703V35H96.8945V21.0547C96.8945 20.791 96.9434 20.5469 97.041 20.3223C97.1387 20.0879 97.2754 19.8877 97.4512 19.7217C97.627 19.5459 97.832 19.4092 98.0664 19.3115C98.3008 19.2139 98.5498 19.165 98.8135 19.165H107.397C107.876 19.165 108.379 19.2188 108.906 19.3262C109.443 19.4336 109.971 19.6094 110.488 19.8535C111.016 20.0879 111.514 20.3906 111.982 20.7617C112.461 21.123 112.881 21.5674 113.242 22.0947C113.613 22.6123 113.906 23.2129 114.121 23.8965C114.336 24.5801 114.443 25.3516 114.443 26.2109V35ZM135.01 36.5234C135.01 37.1777 134.927 37.7637 134.761 38.2812C134.595 38.8086 134.375 39.2676 134.102 39.6582C133.828 40.0586 133.511 40.3955 133.149 40.6689C132.788 40.9521 132.407 41.1816 132.007 41.3574C131.616 41.5332 131.216 41.6602 130.806 41.7383C130.405 41.8262 130.024 41.8701 129.663 41.8701H122.793V38.0615H129.663C130.181 38.0615 130.566 37.9297 130.82 37.666C131.074 37.4023 131.201 37.0215 131.201 36.5234V24.4971C131.201 23.999 131.074 23.623 130.82 23.3691C130.566 23.1055 130.181 22.9736 129.663 22.9736H122.793C122.324 22.9736 121.953 23.1201 121.68 23.4131C121.406 23.6963 121.27 24.0576 121.27 24.4971V29.6533C121.27 30.1514 121.401 30.5322 121.665 30.7959C121.929 31.0596 122.314 31.1914 122.822 31.1914H129.663V35H122.793C122.432 35 122.051 34.9609 121.65 34.8828C121.25 34.7949 120.85 34.6631 120.449 34.4873C120.059 34.3115 119.683 34.0869 119.321 33.8135C118.96 33.5303 118.643 33.1934 118.369 32.8027C118.096 32.4023 117.876 31.9434 117.71 31.4258C117.544 30.8984 117.461 30.3076 117.461 29.6533V24.4971C117.461 24.1357 117.5 23.7549 117.578 23.3545C117.666 22.9541 117.798 22.5586 117.974 22.168C118.149 21.7676 118.374 21.3867 118.647 21.0254C118.931 20.6641 119.268 20.3467 119.658 20.0732C120.059 19.7998 120.518 19.5801 121.035 19.4141C121.553 19.248 122.139 19.165 122.793 19.165H129.663C130.024 19.165 130.405 19.209 130.806 19.2969C131.216 19.375 131.616 19.502 132.007 19.6777C132.407 19.8535 132.788 20.083 133.149 20.3662C133.511 20.6396 133.828 20.9766 134.102 21.377C134.375 21.7676 134.595 22.2217 134.761 22.7393C134.927 23.2568 135.01 23.8428 135.01 24.4971V36.5234ZM153.804 29.6533C153.804 30.3076 153.721 30.8984 153.555 31.4258C153.389 31.9434 153.169 32.4023 152.896 32.8027C152.622 33.1934 152.305 33.5303 151.943 33.8135C151.582 34.0869 151.201 34.3115 150.801 34.4873C150.41 34.6631 150.01 34.7949 149.6 34.8828C149.199 34.9609 148.818 35 148.457 35H138.145V31.1914H148.428C148.945 31.1914 149.336 31.0596 149.6 30.7959C149.863 30.5322 149.995 30.1514 149.995 29.6533C149.946 28.6377 149.434 28.1299 148.457 28.1299H142.554C141.714 28.1299 141.001 27.9834 140.415 27.6904C139.829 27.3975 139.351 27.0312 138.979 26.5918C138.618 26.1523 138.354 25.6787 138.188 25.1709C138.032 24.6631 137.954 24.1895 137.954 23.75C137.954 22.9004 138.105 22.1875 138.408 21.6113C138.711 21.0254 139.092 20.5518 139.551 20.1904C140.01 19.8291 140.508 19.5703 141.045 19.4141C141.582 19.248 142.085 19.165 142.554 19.165H151.914V22.9736H142.583C142.388 22.9736 142.231 22.998 142.114 23.0469C142.007 23.0859 141.924 23.1445 141.865 23.2227C141.816 23.291 141.787 23.3691 141.777 23.457C141.768 23.5352 141.763 23.6133 141.763 23.6914C141.772 23.8477 141.802 23.9697 141.851 24.0576C141.899 24.1455 141.958 24.209 142.026 24.248C142.104 24.2871 142.188 24.3115 142.275 24.3213C142.373 24.3213 142.466 24.3213 142.554 24.3213H148.457C149.434 24.3213 150.264 24.4971 150.947 24.8486C151.631 25.2002 152.183 25.6445 152.603 26.1816C153.022 26.709 153.325 27.2852 153.511 27.9102C153.706 28.5352 153.804 29.1162 153.804 29.6533Z" fill="#2D2E2E"/>
</svg>
