<svg width="24" height="24" viewBox="0 0 24 24" fill="none" xmlns="http://www.w3.org/2000/svg">
<path d="M15.7197 2.5C16.8805 2.5 17.9239 3.00603 18.6377 3.80859C18.2937 3.74865 17.9376 3.71974 17.5801 3.71973H14.2793L13.3633 2.5H15.7197Z" fill="#112027" stroke="#112027"/>
<path d="M6.41992 2.5H8.74023C9.50222 2.50003 9.94005 2.62439 10.25 2.80566C10.5678 2.99154 10.8071 3.26717 11.1299 3.69922L11.1309 3.70117L12.5303 5.56055L12.5312 5.56152C12.6606 5.73254 12.8193 5.95857 13.0615 6.08594C13.3094 6.21619 13.5911 6.21973 13.8604 6.21973H17.5801C17.9156 6.21973 18.241 6.26388 18.5566 6.35156L18.5635 6.35352L18.5713 6.35547C19.0376 6.46989 19.4689 6.67225 19.8477 6.94531L20.0352 7.08594C20.9322 7.80303 21.4999 8.9006 21.5 10.1396V17.5801C21.5 19.7439 19.7439 21.5 17.5801 21.5H6.41992C4.25613 21.5 2.50004 19.7439 2.5 17.5801V6.41992C2.50004 4.25613 4.25613 2.50004 6.41992 2.5ZM9.59961 14.4404C8.91982 14.4406 8.41034 14.998 8.41016 15.6396C8.41016 16.2962 8.92428 16.8396 9.59961 16.8398H14.3896C15.0558 16.8398 15.5898 16.3058 15.5898 15.6396C15.5897 14.9883 15.0603 14.4404 14.3896 14.4404H9.59961Z" fill="#112027" stroke="#112027"/>
</svg>
