<svg width="24" height="24" viewBox="0 0 24 24" fill="none" xmlns="http://www.w3.org/2000/svg">
<path d="M6 2.5H16.0059C15.6898 2.91868 15.5 3.43749 15.5 4V21C15.5 21.3802 15.0876 21.6154 14.7617 21.4395L14.6982 21.3984L12.9941 20.124H12.9951C12.4026 19.6682 11.5606 19.7323 11.0361 20.2568L9.35645 21.9365C9.18591 22.107 8.91673 22.1281 8.72168 22L8.64355 21.9365L6.98438 20.2676L6.9834 20.2666L6.87988 20.1719C6.3813 19.7564 5.6753 19.7024 5.125 20.041L5.00977 20.1201L3.30078 21.3994L3.29785 21.4014C2.97005 21.6496 2.5 21.4204 2.5 21V6C2.5 4.96024 2.73693 4.09671 3.25391 3.49805C3.75907 2.91322 4.60255 2.5 6 2.5ZM6.75 11.75C6.06386 11.75 5.5 12.3139 5.5 13C5.5 13.6861 6.06386 14.25 6.75 14.25H11.25C11.9361 14.25 12.5 13.6861 12.5 13C12.5 12.3139 11.9361 11.75 11.25 11.75H6.75ZM6 7.75C5.31386 7.75 4.75 8.31386 4.75 9C4.75 9.68614 5.31386 10.25 6 10.25H12C12.6861 10.25 13.25 9.68614 13.25 9C13.25 8.31386 12.6861 7.75 12 7.75H6Z" fill="#525252" stroke="#525252"/>
<path d="M18.5098 2.54004C19.214 2.64521 19.8485 2.95374 20.3564 3.41016L20.4785 3.52637C21.109 4.16802 21.5 5.04162 21.5 6V8.41992C21.5 9.10288 21.2863 9.61214 20.9492 9.94922C20.6121 10.2863 20.1029 10.5 19.4199 10.5H16.5V4.00977L16.5078 3.85547C16.5678 3.26517 16.9686 2.77717 17.5098 2.58691V3.13379C17.2059 3.30822 17.0001 3.63559 17 4.00977V10H19.4199C19.8595 10 20.2863 9.90126 20.5957 9.58984C20.9044 9.27897 21 8.85276 21 8.41992V6C21 5.30442 20.7594 4.63985 20.3184 4.0957L20.1172 3.87012L20.1094 3.8623C19.6765 3.43894 19.1165 3.15062 18.5098 3.0459V2.54004Z" fill="#525252" stroke="#525252"/>
</svg>
